<svg xmlns="http://www.w3.org/2000/svg" width="200" height="200" class="icon" viewBox="0 0 1024 1024"><path fill="#000333" d="M363.4 360.522h344.247v20.933H363.4zm0 99.956h344.247v20.933H363.4zm172.124 147.37h172.123v20.933H535.524z"/><path fill="#000333" d="m646.313 205.407-8.845-25.486H426.514l-9.577 27.527v-2.04H272.132v581.314h517.416V205.407zm-204.936-4.553h181.386l20.933 59.66H420.653zm327.29 565.197H293.065V226.34H410.29l-19.102 55.106H672.74l-19.154-55.107H768.72z"/><path fill="#000333" d="m458.228 570.43-20.933-46.681-22.975 48.355-54.74 6.908 41.186 36.948-12.56 52.594 48.775-27.946 48.774 27.946-12.612-52.594 40.296-36.163zm-3.873 55.891-17.113-9.838-17.165 9.838 4.239-17.636-16.119-14.444 20.934-2.564 8.268-17.48 6.751 15.23 23.76 4.03-17.846 15.438z"/></svg>