<svg xmlns="http://www.w3.org/2000/svg" viewBox="0 0 1024 1024"><g transform="scale(2)" fill="#000"><path d="M256 189.439c-44.36 0-77.813 18.876-77.813 43.906 0 64.854 0 129.002 0 193.75 0 25.03 33.452 43.906 77.813 43.906s77.813-18.876 77.813-43.906c0-64.854 0-129.002 0-193.75 0-25.03-33.452-43.906-77.813-43.906zM313.813 378.657c0 9.747-22.521 23.906-57.813 23.906s-57.813-14.159-57.813-23.906v-18.445c30.121 18.581 85.481 18.595 115.625 0V378.657zM313.813 330.22c0 9.747-22.521 23.906-57.813 23.906s-57.813-14.159-57.813-23.906v-18.445c30.121 18.581 85.481 18.595 115.625 0V330.22zM313.813 281.782c0 9.747-22.521 23.906-57.813 23.906s-57.813-14.159-57.813-23.906v-18.445c30.121 18.581 85.481 18.595 115.625 0V281.782zM256 451.001c-35.291 0-57.813-14.159-57.813-23.906V408.65c30.121 18.581 85.481 18.595 115.625 0v18.445c0 9.747-22.522 23.906-57.813 23.906z"/><path d="M78.813 237.876C34.452 237.876 1 256.752 1 281.782c0 28.892 0 116.232 0 145.313 0 25.03 33.452 43.906 77.812 43.906s77.813-18.876 77.813-43.906c0-28.892 0-116.232 0-145.313 0-25.03-33.452-43.906-77.812-43.906zM136.625 378.657c0 9.747-22.521 23.906-57.813 23.906C43.522 402.564 21 388.405 21 378.657v-18.445c30.122 18.581 85.481 18.595 115.625 0V378.657zM136.625 330.22c0 9.747-22.521 23.906-57.813 23.906C43.522 354.126 21 339.967 21 330.22v-18.445c30.122 18.581 85.481 18.595 115.625 0V330.22zM78.813 451.001C43.522 451.001 21 436.842 21 427.095V408.65c30.122 18.581 85.481 18.595 115.625 0v18.445c0 9.747-22.521 23.906-57.812 23.906z"/><path d="M433.188 139.439c-44.36 0-77.813 18.876-77.813 43.906 0 59.453 0 191.483 0 243.75 0 25.03 33.452 43.906 77.813 43.906S511 452.125 511 427.095c0-2.772 0-237.198 0-243.75 0-25.03-33.452-43.906-77.812-43.906zM491 377.095c0 9.747-22.521 23.906-57.813 23.906s-57.813-14.159-57.813-23.906V358.65c30.122 18.581 85.481 18.595 115.625 0V377.095zM491 328.657c0 9.747-22.521 23.906-57.813 23.906s-57.813-14.159-57.813-23.906v-18.445c30.122 18.581 85.481 18.595 115.625 0V328.657zM491 280.22c0 9.747-22.521 23.906-57.813 23.906s-57.813-14.159-57.813-23.906v-18.445c30.122 18.581 85.481 18.595 115.625 0V280.22zM491 231.782c0 9.747-22.521 23.906-57.813 23.906s-57.813-14.159-57.813-23.906v-18.445c14.022 8.65 34.394 13.914 57.813 13.914s43.791-5.264 57.813-13.914V231.782zM433.188 451.001c-35.291 0-57.813-14.159-57.813-23.906v-20.008c30.122 18.581 85.481 18.595 115.625 0v20.008c0 9.747-22.521 23.906-57.812 23.906z"/><path d="M14.774 220.262l261.424-106.506 15.858 31.717c2.269 4.537 7.573 6.658 12.344 4.933l176.573-63.82-6.805 13.61c-3.346 6.691 1.588 14.474 8.937 14.474 3.668 0 7.2-2.025 8.952-5.53l17.889-35.777c2.47-4.939.468-10.946-4.473-13.416l-35.777-17.889c-4.939-2.47-10.947-.469-13.416 4.473-2.47 4.939-.468 10.946 4.473 13.416l14.723 7.361-169.508 61.267-16.024-32.049c-2.338-4.675-7.882-6.761-12.717-4.789l-270 110c-5.115 2.084-7.572 7.919-5.488 13.033 2.087 5.125 7.931 7.569 13.034 5.488z"/></g></svg>
