<svg xmlns:xlink="http://www.w3.org/1999/xlink" xmlns="http://www.w3.org/2000/svg" version="1.1" viewBox="0 0 1024 1024" height="1024px" width="1024px">
    <title>暂无消息</title>
    <defs>
        <linearGradient id="linearGradient-1" y2="63.0775943%" x2="50%" y1="0%" x1="50%">
            <stop offset="0%" stop-opacity="0.397332038" stop-color="#FF9500"></stop>
            <stop offset="64.9556999%" stop-opacity="0.0661697921" stop-color="#FF9200"></stop>
            <stop offset="100%" stop-opacity="0" stop-color="#FF9000"></stop>
        </linearGradient>
        <linearGradient id="linearGradient-2" y2="100%" x2="50%" y1="0%" x1="50%">
            <stop offset="0%" stop-color="#FFC065"></stop>
            <stop offset="100%" stop-color="#FF8C35"></stop>
        </linearGradient>
        <linearGradient id="linearGradient-3" y2="100%" x2="50%" y1="0%" x1="50%">
            <stop offset="0%" stop-color="#FFC065"></stop>
            <stop offset="100%" stop-color="#FF8C35"></stop>
        </linearGradient>
    </defs>
    <g fill-rule="evenodd" fill="none" stroke-width="1" stroke="none" id="暂无消息">
        <rect height="1024" width="1024" y="0" x="0" fill="#FFFFFF"></rect>
        <g id="编组-2">
            <rect height="1024" width="1024" y="0" x="0" id="矩形"></rect>
            <ellipse ry="150" rx="350" cy="735" cx="512" opacity="0.5" fill="url(#linearGradient-1)" id="椭圆形"></ellipse>
            <g transform="translate(677.988476, 421.007570)" id="编组">
                <path transform="translate(66.372939, 117.459729) rotate(16.000000) translate(-66.372939, -117.459729)" fill="#FFDBAD" id="椭圆形" d="M73.4952866,229.027314 C89.2166164,229.024219 102.01735,182.585394 103.319332,114.779642 C104.621315,46.9738896 94.229671,5.88905003 78.5083411,5.89214517 C62.7870113,5.89524031 29.3291663,54.5658508 29.316698,117.836177 C29.3042379,181.106503 57.7739568,229.030409 73.4952866,229.027314 Z"></path>
                <path opacity="0.8" stroke-width="2" stroke="#FFFFFF" id="路径-42" d="M95.3072235,43.8448836 C72.1141531,81.7983445 57.1956347,112.268957 50.5516683,135.256722 C43.9077019,158.244486 41.2128741,188.715099 42.467185,226.66856"></path>
                <path transform="translate(95.301334, 181.382625) scale(-1, 1) rotate(-34.000000) translate(-95.301334, -181.382625)" fill="#FFB76A" id="椭圆形" d="M113.779255,248.470848 C124.549025,248.474558 123.686282,220.47556 117.755433,174.584664 C111.824584,128.693769 101.246415,114.298113 90.476645,114.294402 C79.7068752,114.290692 64.7072419,145.375678 69.4027966,184.58494 C74.0983513,223.794201 103.009485,248.467137 113.779255,248.470848 Z"></path>
                <path opacity="0.8" stroke-width="2" stroke="#FFFFFF" id="路径-43" d="M118.883233,157.951387 C108.731785,173.572968 97.5215836,187.709379 85.2526274,200.360621 C72.9836712,213.011863 59.8656745,221.781176 45.8986375,226.66856"></path>
            </g>
            <g fill-rule="nonzero" transform="translate(297.000000, 340.000000)" id="消息">
                <rect height="341" width="341" y="0" x="0" opacity="0" fill="#000000" id="矩形"></rect>
                <path fill="url(#linearGradient-2)" id="形状" d="M266.40625,34.1 L93.775,34.1 C61.80625,34.1 34.1,61.80625 34.1,93.775 L34.1,213.125 C34.1,245.09375 61.80625,272.8 93.775,272.8 L100.16875,272.8 C100.16875,272.8 100.16875,274.93125 102.3,274.93125 L125.74375,300.50625 C130.00625,304.76875 136.4,304.76875 138.53125,300.50625 L159.84375,277.0625 L161.975,274.93125 L266.40625,274.93125 C298.375,274.93125 326.08125,247.225 326.08125,215.25625 L326.08125,93.775 C326.08125,61.80625 298.375,34.1 266.40625,34.1 Z"></path>
                <path fill="#FFFFFF" id="路径" d="M98.0375,176.89375 C85.25,176.89375 76.725,166.2375 76.725,153.45 C76.725,140.6625 87.38125,130.00625 100.16875,130.00625 C112.95625,130.00625 123.6125,140.6625 123.6125,153.45 C121.48125,166.2375 110.825,176.89375 98.0375,176.89375 L98.0375,176.89375 Z"></path>
                <path fill="#FFFFFF" id="路径" d="M179.025,176.89375 C166.2375,176.89375 155.58125,166.2375 155.58125,153.45 C155.58125,140.6625 166.2375,130.00625 179.025,130.00625 C191.8125,130.00625 202.46875,140.6625 202.46875,153.45 C202.46875,166.2375 191.8125,176.89375 179.025,176.89375 Z"></path>
                <path fill="#FFFFFF" id="路径" d="M262.14375,176.89375 C249.35625,176.89375 238.7,166.2375 238.7,153.45 C238.7,140.6625 249.35625,130.00625 262.14375,130.00625 C274.93125,130.00625 285.5875,140.6625 285.5875,153.45 C283.45625,166.2375 272.8,176.89375 262.14375,176.89375 Z"></path>
            </g>
            <path fill-rule="nonzero" fill="#FFFFFF" id="形状" d="M563.15,463.6 L635.170462,463.6 L635.170462,491.6 L563.15,491.6 C549.829042,491.6 537.842026,503.453806 537.603618,516.746754 L537.6,517.15 L537.6,596.25 C537.6,598.688488 537.994055,601.121159 538.764417,603.488834 L538.967,604.087 L541.177695,608.733709 L529.89262,615.010128 L513.156553,615.010128 L512.951034,614.465714 C510.838226,608.868929 509.693696,602.975731 509.605515,596.997683 L509.6,596.25 L509.6,517.15 C509.6,488.519708 533.740366,464.093039 562.283722,463.607369 L563.15,463.6 Z"></path>
            <g fill-rule="nonzero" transform="translate(501.000000, 455.000000)" id="消息">
                <rect height="226" width="226" y="0" x="0" opacity="0" fill="#000000" id="矩形"></rect>
                <path fill="url(#linearGradient-3)" id="形状" d="M176.5625,22.6 L62.15,22.6 C40.9625,22.6 22.6,40.9625 22.6,62.15 L22.6,141.25 C22.6,162.4375 40.9625,180.8 62.15,180.8 L66.3875,180.8 C66.3875,180.8 66.3875,182.2125 67.8,182.2125 L83.3375,199.1625 C86.1625,201.9875 90.4,201.9875 91.8125,199.1625 L105.9375,183.625 L107.35,182.2125 L176.5625,182.2125 C197.75,182.2125 216.1125,163.85 216.1125,142.6625 L216.1125,62.15 C216.1125,40.9625 197.75,22.6 176.5625,22.6 Z"></path>
                <path fill="#FFFFFF" id="路径" d="M64.975,117.2375 C56.5,117.2375 50.85,110.175 50.85,101.7 C50.85,93.225 57.9125,86.1625 66.3875,86.1625 C74.8625,86.1625 81.925,93.225 81.925,101.7 C80.5125,110.175 73.45,117.2375 64.975,117.2375 L64.975,117.2375 Z"></path>
                <path fill="#FFFFFF" id="路径" d="M118.65,117.2375 C110.175,117.2375 103.1125,110.175 103.1125,101.7 C103.1125,93.225 110.175,86.1625 118.65,86.1625 C127.125,86.1625 134.1875,93.225 134.1875,101.7 C134.1875,110.175 127.125,117.2375 118.65,117.2375 Z"></path>
                <path fill="#FFFFFF" id="路径" d="M173.7375,117.2375 C165.2625,117.2375 158.2,110.175 158.2,101.7 C158.2,93.225 165.2625,86.1625 173.7375,86.1625 C182.2125,86.1625 189.275,93.225 189.275,101.7 C187.8625,110.175 180.8,117.2375 173.7375,117.2375 Z"></path>
            </g>
            <g transform="translate(289.010901, 649.458282) scale(-1, 1) translate(-289.010901, -649.458282) translate(253.866924, 592.101433)" id="编组备份">
                <path transform="translate(30.113387, 53.514046) rotate(16.000000) translate(-30.113387, -53.514046)" fill="#FFDBAD" id="椭圆形" d="M33.4806512,104.384544 C40.58626,104.40285 46.3135652,83.2433038 46.8169343,52.3262361 C47.3203035,21.4091684 42.5720052,2.66187784 35.4663964,2.64354868 C28.3607877,2.62524223 13.2998317,24.7765356 13.373328,53.6271156 C13.4473642,82.4776956 26.3750424,104.366214 33.4806512,104.384544 Z"></path>
                <path opacity="0.8" stroke="#FFFFFF" id="路径-42" d="M43.1916461,19.9106 C32.7173563,37.2306318 25.9799608,51.1358717 22.9794599,61.6263198 C19.9789589,72.1167679 18.7619399,86.0220078 19.3284029,103.34204"></path>
                <path transform="translate(43.226463, 82.683023) scale(-1, 1) rotate(-34.000000) translate(-43.226463, -82.683023)" fill="#FFB76A" id="椭圆形" d="M51.4864769,113.173782 C56.3661861,113.15179 56.0367603,100.417831 53.4502918,79.5565452 C50.8638234,58.6952596 46.1025279,52.1703603 41.2228188,52.1922646 C36.3431096,52.2142794 29.4786131,66.3867855 31.5200482,84.2115208 C33.5614833,102.036256 46.6067678,113.195709 51.4864769,113.173782 Z"></path>
                <path opacity="0.8" stroke="#FFFFFF" id="路径-43" d="M53.8388761,71.9830122 C49.2543515,79.1119083 44.1916797,85.5630484 38.6508608,91.3364325 C33.1100418,97.1098166 27.1857853,101.111686 20.8780911,103.34204"></path>
            </g>
        </g>
    </g>
</svg>