<?xml version="1.0" standalone="no"?><!DOCTYPE svg PUBLIC "-//W3C//DTD SVG 1.1//EN" "http://www.w3.org/Graphics/SVG/1.1/DTD/svg11.dtd"><svg t="1770536933295" class="icon" viewBox="0 0 1024 1024" version="1.1" xmlns="http://www.w3.org/2000/svg" p-id="1767" xmlns:xlink="http://www.w3.org/1999/xlink" width="200" height="200"><path d="M372.363636 384a128 128 0 1 0 256 0 128 128 0 1 0-256 0Z" fill="#FD5241" p-id="1768"></path><path d="M162.909091 837.818182a325.818182 93.090909 0 1 0 651.636364 0 325.818182 93.090909 0 1 0-651.636364 0Z" fill="#FD5241" p-id="1769"></path><path d="M489.565091 1000.727273C243.409455 1000.727273 46.545455 945.687273 46.545455 854.946909c0-58.391273 72.238545-97.163636 188.695272-121.483636 18.152727-4.887273 36.189091 6.4 37.608728 24.203636a31.022545 31.022545 0 0 1-24.622546 38.888727c-85.341091 17.92-136.192 45.474909-136.192 58.391273 0 3.188364 4.957091 8.075636 19.735273 17.780364 17.989818 11.403636 44.218182 22.667636 78.731636 32.372363 72.215273 20.992 174.033455 32.418909 280.622546 32.418909 106.705455 0 206.824727-11.403636 280.669091-32.418909 34.350545-9.704727 60.648727-20.992 78.68509-32.349091 13.079273-9.728 18.036364-14.615273 18.036364-17.803636 0-14.592-55.738182-43.799273-149.271273-61.579636a31.650909 31.650909 0 0 1-26.205091-37.236364 32.023273 32.023273 0 0 1 37.748364-25.879273c124.625455 24.203636 201.774545 64.791273 201.774546 124.695273 0 90.763636-196.864 145.780364-442.996364 145.780364z m77.661091-180.200728c-16.267636 14.615273-30.766545 26.228364-43.426909 34.56-17.175273 11.380364-30.254545 16.453818-42.426182 16.453819-11.985455 0-25.111273-5.073455-42.379636-16.453819-15.290182-10.472727-29.789091-22.016-43.42691-34.56-33.908364-30.487273-70.912-70.330182-104.308363-112.453818-52.037818-65.605818-139.450182-192.698182-139.450182-305.850182 0-96.558545 31.488-185.413818 88.599273-250.181818a306.129455 306.129455 0 0 1 104.564363-77.265454C386.722909 56.087273 432.570182 46.545455 481.373091 46.545455s94.743273 9.518545 136.424727 28.25309a306.734545 306.734545 0 0 1 104.587637 77.265455c57.181091 64.744727 88.552727 153.6 88.552727 250.158545 0 113.175273-87.365818 240.151273-139.403637 305.850182-33.419636 42.123636-70.446545 82.082909-104.308363 112.453818zM481.373091 105.774545C322.722909 105.774545 211.781818 227.607273 211.781818 402.106182c0 67.258182 43.659636 162.280727 119.854546 260.538182 30.021818 38.679273 63.837091 76.264727 95.278545 105.658181 28.974545 27.066182 46.778182 38.818909 54.318546 42.752 7.610182-3.933091 25.390545-15.685818 54.36509-42.728727a928 928 0 0 0 95.325091-105.681454c76.194909-98.257455 119.808-193.256727 119.808-260.538182 0.232727-174.498909-110.592-296.331636-269.358545-296.331637z m0 424.564364a160.791273 160.791273 0 0 1-113.570909-46.359273 156.648727 156.648727 0 0 1-47.010909-112.128c0-42.356364 16.756364-82.199273 47.010909-112.081454a160.651636 160.651636 0 0 1 113.570909-46.405818 160.581818 160.581818 0 0 1 113.570909 46.405818 156.416 156.416 0 0 1 47.010909 112.081454c0 42.356364-16.686545 82.222545-47.010909 112.128a160.512 160.512 0 0 1-113.570909 46.359273z m0-257.792c-55.389091 0-100.445091 44.520727-100.445091 99.211636 0 54.690909 45.032727 99.141818 100.445091 99.141819s100.491636-44.450909 100.491636-99.141819c0-54.690909-44.916364-99.211636-100.491636-99.211636z" fill="#1A1A1A" p-id="1770"></path></svg>