<?xml version="1.0" standalone="no"?><!DOCTYPE svg PUBLIC "-//W3C//DTD SVG 1.1//EN" "http://www.w3.org/Graphics/SVG/1.1/DTD/svg11.dtd"><svg t="1770536944982" class="icon" viewBox="0 0 1024 1024" version="1.1" xmlns="http://www.w3.org/2000/svg" p-id="1931" xmlns:xlink="http://www.w3.org/1999/xlink" width="200" height="200"><path d="M884.363636 605.090909q0 5.701818-0.256 11.403636-0.279273 5.725091-0.814545 11.403637-0.535273 5.678545-1.326546 11.333818t-1.861818 11.264q-1.047273 5.585455-2.373818 11.147636-1.303273 5.538909-2.885818 11.008t-3.397818 10.845091q-1.838545 5.376-3.909818 10.658909-2.094545 5.282909-4.421819 10.449455-2.304 5.143273-4.864 10.193454-2.56 5.026909-5.352727 9.937455-2.792727 4.887273-5.794909 9.658182-3.025455 4.747636-6.260364 9.332363-3.211636 4.584727-6.656 9.006546-3.444364 4.421818-7.098181 8.657454-3.653818 4.212364-7.470546 8.261819-3.84 4.049455-7.866182 7.889454-4.026182 3.816727-8.215272 7.447273t-8.564364 7.028364q-4.352 3.397818-8.866909 6.586181-4.514909 3.165091-9.169455 6.097455t-9.448727 5.632q-4.770909 2.699636-9.681455 5.12-4.910545 2.466909-9.937454 4.654545-5.003636 2.187636-10.123636 4.096-5.12 1.931636-10.286546 3.584-5.189818 1.675636-10.472727 3.048728-5.259636 1.396364-10.589091 2.513454-5.306182 1.117091-10.705455 1.954909-5.352727 0.837818-10.752 1.396364t-10.821818 0.837818Q668.695273 837.818182 663.272727 837.818182t-10.845091-0.279273q-5.422545-0.279273-10.821818-0.837818-5.399273-0.558545-10.775273-1.396364-5.352727-0.837818-10.705454-1.954909-5.306182-1.117091-10.565818-2.513454-5.282909-1.396364-10.472728-3.025455-5.189818-1.675636-10.286545-3.607273-5.12-1.908364-10.123636-4.096-5.026909-2.187636-9.937455-4.654545-4.887273-2.420364-9.681454-5.12t-9.448728-5.632q-4.654545-2.932364-9.169454-6.097455-4.514909-3.188364-8.866909-6.586181-4.352-3.397818-8.564364-7.028364-4.189091-3.630545-8.215273-7.447273-4.026182-3.84-7.866182-7.889454-3.816727-4.049455-7.470545-8.261819-3.653818-4.235636-7.098182-8.657454t-6.656-9.006546q-3.258182-4.584727-6.260363-9.332363-3.025455-4.747636-5.818182-9.658182-2.792727-4.887273-5.352728-9.937455-2.56-5.050182-4.864-10.193454-2.327273-5.166545-4.398545-10.472727-2.094545-5.259636-3.909818-10.635637-1.815273-5.376-3.397818-10.845091-1.582545-5.469091-2.885819-11.008-1.326545-5.538909-2.373818-11.170909-1.070545-5.585455-1.861818-11.240727t-1.326545-11.333818q-0.535273-5.678545-0.814546-11.403637Q442.181818 610.816 442.181818 605.090909t0.256-11.403636q0.279273-5.725091 0.814546-11.403637 0.535273-5.678545 1.326545-11.333818t1.861818-11.264q1.047273-5.585455 2.373818-11.147636 1.303273-5.538909 2.885819-11.008t3.397818-10.845091q1.838545-5.376 3.909818-10.658909 2.094545-5.282909 4.421818-10.449455 2.304-5.143273 4.864-10.193454 2.56-5.026909 5.352727-9.937455 2.792727-4.887273 5.79491-9.658182 3.025455-4.747636 6.260363-9.332363 3.211636-4.584727 6.656-9.006546 3.444364-4.421818 7.098182-8.657454 3.653818-4.212364 7.470545-8.261818 3.84-4.049455 7.866182-7.889455 4.026182-3.816727 8.215273-7.447273t8.564364-7.028363q4.352-3.397818 8.866909-6.586182 4.514909-3.165091 9.169454-6.097455t9.448728-5.632q4.770909-2.699636 9.681454-5.12 4.910545-2.466909 9.937455-4.654545 5.003636-2.187636 10.123636-4.096 5.12-1.931636 10.286545-3.584 5.189818-1.675636 10.472728-3.048727 5.259636-1.396364 10.589091-2.513455 5.306182-1.117091 10.705454-1.954909 5.352727-0.837818 10.752-1.396364t10.821818-0.837818Q657.850182 372.363636 663.272727 372.363636t10.845091 0.279273q5.422545 0.279273 10.821818 0.837818 5.399273 0.558545 10.775273 1.396364 5.352727 0.837818 10.705455 1.954909 5.306182 1.117091 10.565818 2.513455 5.282909 1.396364 10.472727 3.025454 5.189818 1.675636 10.286546 3.607273 5.12 1.908364 10.123636 4.096 5.026909 2.187636 9.937454 4.654545 4.887273 2.420364 9.681455 5.12t9.448727 5.632q4.654545 2.932364 9.169455 6.097455 4.514909 3.188364 8.866909 6.586182 4.352 3.397818 8.564364 7.028363 4.189091 3.630545 8.215272 7.447273 4.026182 3.84 7.866182 7.889455 3.816727 4.049455 7.470546 8.261818 3.653818 4.235636 7.098181 8.657454t6.656 9.006546q3.258182 4.584727 6.260364 9.332363 3.025455 4.747636 5.818182 9.658182 2.792727 4.887273 5.352727 9.937455 2.56 5.050182 4.864 10.193454 2.327273 5.166545 4.398546 10.472728 2.094545 5.259636 3.909818 10.635636 1.815273 5.376 3.397818 10.845091 1.582545 5.469091 2.885818 11.008 1.326545 5.538909 2.373818 11.170909 1.070545 5.585455 1.861818 11.240727t1.326546 11.333818q0.535273 5.678545 0.814545 11.403637 0.256 5.701818 0.256 11.403636z" fill="#FD5241" p-id="1932"></path><path d="M569.949091 1000.727273a89.6 89.6 0 0 1-89.460364-89.460364 89.6 89.6 0 0 1 89.460364-89.437091 89.6 89.6 0 0 1 89.437091 89.437091A89.6 89.6 0 0 1 569.949091 1000.727273z m0-119.272728a29.789091 29.789091 0 0 0-29.835636 29.812364 29.789091 29.789091 0 0 0 29.835636 29.835636 29.789091 29.789091 0 0 0 29.789091-29.835636 29.789091 29.789091 0 0 0-29.789091-29.789091z m-477.090909-208.73309A69.655273 69.655273 0 0 1 23.272727 603.136v-129.000727a69.981091 69.981091 0 0 1 69.771637-69.771637H162.443636v198.795637a69.655273 69.655273 0 0 1-69.585454 69.585454z m0.186182-208.709819a10.170182 10.170182 0 0 0-10.146909 10.123637v129.024c0 5.562182 4.375273 9.937455 9.960727 9.937454 5.562182 0 9.937455-4.375273 9.937454-9.937454v-139.170909h-9.751272z m788.014545 208.709819a29.789091 29.789091 0 0 1-29.835636-29.789091 29.789091 29.789091 0 0 1 29.812363-29.835637c20.293818 0 36.770909-16.523636 36.770909-36.770909v-75.752727c0-20.270545-16.477091-36.770909-36.770909-36.770909a29.789091 29.789091 0 0 1-29.812363-29.812364 29.789091 29.789091 0 0 1 29.812363-29.812363A96.512 96.512 0 0 1 977.454545 500.573091v75.752727a96.372364 96.372364 0 0 1-96.418909 96.395637z" fill="#1A1A1A" p-id="1933"></path><path d="M632.762182 938.309818a30.184727 30.184727 0 0 1-28.043637-19.479273 29.812364 29.812364 0 0 1 17.687273-38.376727c134.981818-49.896727 225.838545-181.294545 225.838546-326.981818V454.050909c0-191.813818-153.856-347.880727-342.923637-347.880727-189.044364 0-342.900364 156.066909-342.900363 347.880727v99.397818a29.789091 29.789091 0 0 1-29.812364 29.835637 29.789091 29.789091 0 0 1-29.812364-29.835637v-99.374545C102.795636 229.399273 283.275636 46.545455 505.320727 46.545455 727.389091 46.545455 907.869091 229.422545 907.869091 454.050909v99.397818c0 170.565818-106.356364 324.631273-264.773818 383.069091-3.374545 1.186909-6.749091 1.792-10.333091 1.792z" fill="#1A1A1A" p-id="1934"></path><path d="M410.903273 563.386182a29.789091 29.789091 0 0 1-29.812364-29.789091V454.050909a29.789091 29.789091 0 0 1 29.812364-29.789091 29.789091 29.789091 0 0 1 29.835636 29.789091v79.522909a29.789091 29.789091 0 0 1-29.835636 29.812364z m258.420363 0a29.789091 29.789091 0 0 1-29.789091-29.789091V454.050909a29.789091 29.789091 0 0 1 29.789091-29.789091 29.789091 29.789091 0 0 1 29.835637 29.789091v79.522909a29.789091 29.789091 0 0 1-29.835637 29.812364z" fill="#1A1A1A" p-id="1935"></path></svg>