<?xml version="1.0" standalone="no"?><!DOCTYPE svg PUBLIC "-//W3C//DTD SVG 1.1//EN" "http://www.w3.org/Graphics/SVG/1.1/DTD/svg11.dtd"><svg t="1770534634893" class="icon" viewBox="0 0 1024 1024" version="1.1" xmlns="http://www.w3.org/2000/svg" p-id="7654" xmlns:xlink="http://www.w3.org/1999/xlink" width="200" height="200"><path d="M968.913083 348.620753c-10.519743 107.915519-67.247016 229.201102-151.728191 324.422406a563.599633 563.599633 0 0 1-118.30303 102.141414l-15.397612 2.938476c9.02112-19.100092 15.808999-33.968779 18.806244-41.329661a473.285583 473.285583 0 0 0 20.378329-69.847566c28.370983-15.676768 62.795225-46.721763 85.06887-108.121212 22.038567-60.576676 4.20202-107.930211-7.566575-139.313132-2.453627-6.494031-5.656566-15.030303-6.773186-19.717171a66.438935 66.438935 0 0 0-57.741047-100.451791c-67.070707 0.793388-153.69697 48.05877-196.011019 151.889807a208.749311 208.749311 0 0 0-13.355372 132.995409c0.205693 0.734619 0.528926 1.469238 0.734619 2.145087a478.310376 478.310376 0 0 0-34.262626 64.117539c-39.933884 97.939394-62.001837 175.030303-62.001837 175.030303-9.843893-1.983471-40.448118-66.40955-100.055096-17.263544-38.538108 31.764922-56.242424 54.876033-102.846649 44.077135-104.609734-24.242424-270.707071-288.382002-102.846648-587.695134C194.066435 141.561065 366.363956 0.073462 552.795544 0.073462a808.991736 808.991736 0 0 1 108.988063 7.581267c113.263545 15.471074 197.524334 57.300275 250.460973 124.341598 45.28191 57.344353 64.881543 132.26079 56.668503 216.624426z m-732.400367-43.724518a64.146924 64.146924 0 1 0 63.823692 64.146924 63.985308 63.985308 0 0 0-63.823692-64.146924z m112.940312-142.986226a64.146924 64.146924 0 1 0 63.823692 64.146924 63.970615 63.970615 0 0 0-63.823692-64.146924z m170.578513-64.146924a64.146924 64.146924 0 1 0 63.808999 64.146924 63.985308 63.985308 0 0 0-63.808999-64.146924z m27.019283 575.044996a501.348026 501.348026 0 0 1 36.730946-66.644628l84.393021 35.261708a501.348026 501.348026 0 0 1-20.216712 72.977043c-14.692378 36.216713-134.523416 279.801653-139.577594 290.145087a34.835629 34.835629 0 0 1-64.279155-26.446281c3.540863-11.004591 88.022039-268.650138 102.949494-305.292929z m205.516989-134.273646c-18.277319 50.394858-45.458219 71.346189-65.043159 80.044077a82.40955 82.40955 0 0 1-12.400368 4.407714l-84.393021-35.261708a84.422406 84.422406 0 0 1-7.860422-19.202939 150.876033 150.876033 0 0 1 11.078053-94.956841c31.955923-78.413223 96.191001-114.703398 142.354454-115.261708a7.640037 7.640037 0 0 1 2.938475 0.573003 7.434343 7.434343 0 0 1 3.70248 3.305785 7.566575 7.566575 0 0 1-0.220386 7.713499c-15.030303 23.757576-7.346189 44.35629 2.497704 70.435262 10.25528 27.283747 21.803489 58.196511 7.34619 98.203856z m-36.966024-28.179981a14.692378 14.692378 0 0 0-5.12764 0.631772 14.942149 14.942149 0 0 0-10.62259 13.561065 53.494949 53.494949 0 0 1-26.637282 38.200184 15.059688 15.059688 0 0 0 13.781451 26.666666 14.266299 14.266299 0 0 0 2.203857-1.146005 83.746556 83.746556 0 0 0 40.624426-62.060606 15.089073 15.089073 0 0 0-14.222222-15.853076z" fill="#63CFC4" p-id="7655"></path></svg>