<?xml version="1.0" standalone="no"?><!DOCTYPE svg PUBLIC "-//W3C//DTD SVG 1.1//EN" "http://www.w3.org/Graphics/SVG/1.1/DTD/svg11.dtd"><svg t="1770537002298" class="icon" viewBox="0 0 1024 1024" version="1.1" xmlns="http://www.w3.org/2000/svg" p-id="2424" xmlns:xlink="http://www.w3.org/1999/xlink" width="200" height="200"><path d="M977.454545 756.363636c0 30.533818-55.272727 65.373091-69.818181 93.090909-14.545455 27.717818 11.636364 48.337455-11.636364 67.607273-46.545455 38.562909-104.727273 54.574545-151.272727 25.483637-61.044364 0-125.858909 23.505455-144.709818-29.835637C581.818182 861.090909 535.272727 817.408 535.272727 756.363636c23.272727-116.363636 104.727273-221.090909 221.090909-186.181818 61.044364 0 103.540364-4.468364 128 46.545455 41.472 86.528 93.090909 78.592 93.090909 139.636363z" fill="#FD5241" p-id="2425"></path><path d="M276.130909 287.883636c0-98.676364 81.408-177.733818 179.851636-177.733818 98.397091 0 179.828364 79.057455 179.828364 177.733818s-80.128 172.101818-178.525091 172.101819c-98.443636 0-181.154909-73.425455-181.154909-172.101819zM107.357091 876.986182v-1.466182c0-180.317091 139.170909-329.378909 315.229091-346.344727l37.469091-5.538909c40.680727-3.188364 97.908364-8.238545 128.116363-35.281455l13.777455-10.100364c57.669818-47.709091 91.461818-115.595636 91.461818-190.370909C693.410909 155.298909 584.913455 46.545455 449.629091 46.545455 324.189091 46.545455 215.808 155.298909 215.808 287.883636c0 74.775273 33.815273 142.661818 91.485091 190.370909l16.919273 10.100364-16.896 6.888727C151.272727 556.218182 46.545455 705.768727 46.545455 875.52c-0.581818 63.255273 49.664 124.602182 112.73309 125.207273h300.8c10.053818 0 31.697455-15.918545 31.697455-31.813818 0-15.872-21.643636-31.744-31.697455-31.744H160.884364c-29.393455 0.395636-53.131636-30.696727-53.527273-60.183273z m836.258909-83.083637c-50.757818 6.865455-88.343273 47.616-88.343273 101.725091 0 10.100364 3.188364 23.901091 6.865455 30.813091l-43.892364 23.854546-16.896-16.942546c-20.154182-13.847273-37.026909-20.130909-57.669818-20.130909-16.989091 0-37.050182 6.842182-57.669818 20.130909-6.888727 6.818909-13.754182 10.077091-16.989091 16.942546L628.363636 926.440727c3.165091-6.912 6.842182-20.177455 6.842182-30.813091a102.260364 102.260364 0 0 0-88.343273-101.701818c0-6.958545-3.211636-20.224-3.211636-34.048 0-10.077091 3.211636-23.854545 3.211636-33.931636 50.711273-6.935273 88.343273-47.778909 88.343273-101.818182 0-10.123636-3.165091-23.854545-6.818909-30.72l43.892364-23.924364c3.165091 3.188364 9.984 10.100364 16.919272 13.824 20.014545 13.777455 37.050182 20.130909 53.992728 20.130909 16.849455 0 33.815273-6.865455 53.876363-20.130909 6.935273-6.865455 13.754182-10.077091 16.989091-13.824l43.915637 23.924364c-3.188364 6.865455-6.958545 20.130909-6.958546 30.72a102.376727 102.376727 0 0 0 88.436364 101.818182c0 6.865455 3.165091 20.154182 3.165091 33.931636 4.770909 10.077091 1.000727 23.854545 1.000727 34.024727z m16.989091-115.688727h-3.234909c-30.603636 0-53.899636-23.877818-53.899637-54.085818 0-6.912 3.165091-17.012364 3.165091-20.154182 6.818909-16.965818 0-37.189818-13.777454-47.732363l-60.811637-33.95491h-16.98909c-9.960727 0-23.738182 3.165091-30.603637 13.777455-6.888727 6.912-26.996364 23.877818-40.727273 23.877818-13.777455 0-33.885091-16.989091-43.962181-23.877818-6.818909-6.888727-16.919273-13.777455-30.673455-13.777455-6.818909 0-10.007273 0-13.754182 3.165091l-64.488727 33.954909c-13.800727 10.077091-20.154182 30.72-13.800727 47.709091 0 0 3.165091 10.100364 3.165091 20.177455a53.224727 53.224727 0 0 1-53.899637 54.109091h-3.234909c-13.730909 0-26.996364 13.847273-30.673454 30.766545 0 3.165091-6.842182 27.019636-6.842182 50.967273 0 20.177455 3.165091 47.709091 6.842182 50.781091 3.211636 17.058909 16.896 30.859636 30.673454 30.859636h3.258182c30.650182 0 53.876364 23.877818 53.876364 54.109091 0 6.842182-3.165091 16.919273-3.165091 20.061091-6.818909 17.058909 0 37.096727 13.800727 47.732364L651.589818 1000.727273c6.981818-3.188364 10.146909-3.188364 16.989091-3.188364 10.053818 0 23.808-3.188364 30.72-13.870545 6.842182-6.865455 26.949818-26.926545 43.915636-26.926546 13.730909 0 36.933818 16.919273 43.892364 26.926546 6.842182 6.935273 16.942545 13.847273 30.696727 13.847272 6.795636 0 10.007273 0 16.872728-3.165091l60.788363-33.978181c13.754182-10.053818 20.177455-30.72 13.754182-47.778909 0 0-3.118545-10.007273-3.118545-20.084364a53.294545 53.294545 0 0 1 53.992727-54.132364h3.141818c13.730909 0 26.996364-13.824 30.626909-30.743272 0 0 6.865455-27.019636 6.865455-50.967273-6.306909-16.965818-9.448727-43.985455-9.448728-47.662546-3.258182-17.012364-16.989091-30.789818-30.696727-30.789818z m-216.878546 125.719273c-23.808 0-43.962182-20.200727-43.962181-44.055273s20.154182-44.032 43.985454-44.032c23.738182 0 43.869091 20.177455 43.869091 44.055273 0.465455 23.854545-20.130909 44.032-43.892364 44.032z m16.896-135.773091c-64.558545-13.847273-122.181818 43.985455-108.450909 111.895273 6.888727 37.096727 37.050182 67.84 74.542546 74.705454 64.605091 13.893818 122.251636-43.938909 108.497454-108.660363-6.353455-40.308364-37.050182-71.074909-74.589091-77.940364z" fill="#1A1A1A" p-id="2426"></path></svg>