<?xml version="1.0" standalone="no"?><!DOCTYPE svg PUBLIC "-//W3C//DTD SVG 1.1//EN" "http://www.w3.org/Graphics/SVG/1.1/DTD/svg11.dtd"><svg t="1770537037341" class="icon" viewBox="0 0 1024 1024" version="1.1" xmlns="http://www.w3.org/2000/svg" p-id="2750" xmlns:xlink="http://www.w3.org/1999/xlink" width="200" height="200"><path d="M186.181818 837.818182m0 0l674.909091 0q0 0 0 0l0 116.363636q0 0 0 0l-674.909091 0q0 0 0 0l0-116.363636q0 0 0 0Z" fill="#FD5241" p-id="2751"></path><path d="M139.636364 837.818182h768l-58.181819-116.363637q-133.818182-46.545455-325.818181-46.545454t-349.090909 46.545454L139.636364 837.818182z" fill="#FD5241" p-id="2752"></path><path d="M943.406545 814.126545c-0.349091-2.746182-0.698182-5.515636-1.326545-8.517818a151.808 151.808 0 0 0-85.108364-111.057454l-146.734545-68.328728a87.808 87.808 0 0 1-28.928-21.969454l-1.931636-2.513455a93.021091 93.021091 0 0 1-12.730182-21.620363 86.760727 86.760727 0 0 1-6.353455-32.535273v-23.272727c0-23.319273 10.333091-42.635636 26.996364-62.813091 41.425455-49.943273 72.168727-105.774545 72.168727-170.612364 0-65.559273-27.485091-128.954182-75.52-173.847273a234.984727 234.984727 0 0 0-134.586182-62.324363l-3.607272-0.372364-0.698182-0.116363c-0.256 0-0.628364 0-0.861091-0.116364a89.739636 89.739636 0 0 0-5.888-0.465455c-1.559273-0.139636-3.002182-0.256-4.561455-0.256-0.698182 0-1.442909-0.116364-2.164363-0.116363h-0.349091c-0.721455 0-1.559273 0-2.280728-0.116364-0.837818 0-1.675636 0-2.536727-0.116364h-9.588363c-0.837818 0-1.698909 0-2.536728 0.116364-0.698182 0-1.559273 0-2.280727 0.116364h-0.349091c-0.721455 0-1.442909 0-2.164364 0.116363-1.559273 0.116364-3.002182 0.116364-4.561454 0.232728-1.931636 0.116364-3.84 0.372364-5.888 0.465454-0.232727 0-0.605091 0-0.837818 0.139637l-0.698182 0.116363-3.630546 0.372364a235.543273 235.543273 0 0 0-134.586181 62.440727 238.894545 238.894545 0 0 0-75.52 173.847273c0 64.837818 29.044364 121.995636 72.145454 170.612363 17.291636 19.572364 27.019636 39.517091 27.019637 62.789819v23.296c0 11.170909-2.164364 22.109091-6.353455 32.418909-3.258182 7.819636-7.563636 15.010909-12.730182 21.620363l-1.931636 2.513455a86.574545 86.574545 0 0 1-28.928 21.969454l-146.618182 68.328728a151.808 151.808 0 0 0-85.108364 111.057454 123.648 123.648 0 0 0-1.326545 8.517818c-0.116364 1.442909-0.232727 2.792727-0.232727 4.212364v2.048a39.307636 39.307636 0 0 0 39.261091 37.701818h765.556363a39.307636 39.307636 0 0 0 39.261091-37.701818v-2.048c-0.116364-1.442909-0.116364-2.769455-0.372364-4.189091zM427.124364 565.829818c1.070545-6.237091 1.559273-12.357818 1.559272-18.129454v-23.272728c0-35.793455-14.429091-64.139636-39.493818-94.021818-37.934545-45.032727-64.232727-97.512727-59.089454-156.578909 8.052364-93.160727 84.526545-168.331636 178.059636-174.824727l6.493091-0.349091h0.698182c2.187636-0.116364 4.352-0.116364 6.376727-0.116364 2.048 0 4.189091 0 6.376727 0.116364h0.698182l6.516364 0.349091c93.509818 6.516364 170.007273 81.664 178.036363 174.824727 5.050182 58.949818-20.526545 112.034909-59.066181 156.578909-26.903273 30.952727-39.493818 58.112-39.493819 94.021818v23.272728c0 5.771636 0.465455 11.892364 1.559273 18.152727a131.234909 131.234909 0 0 0 74.914909 101.445818l80.686546 37.585455v0.116363l66.024727 30.72a107.52 107.52 0 0 1 59.694545 77.218909H146.036364a107.52 107.52 0 0 1 59.671272-77.195636l60.509091-28.229818 5.306182-2.513455 80.919273-37.701818a131.84 131.84 0 0 0 74.682182-101.469091z" fill="#1A1A1A" p-id="2753"></path><path d="M892.625455 840.448l-0.465455-10.938182h-61.975273l4.096 15.732364c0.116364 0.465455 0.232727 0.954182 0.465455 1.326545v95.557818h-626.036364v-95.557818c0.116364-0.488727 0.372364-0.977455 0.465455-1.326545l4.096-15.732364H151.319273l-0.465455 10.938182a15.592727 15.592727 0 0 0-0.488727 3.723636v101.701819A54.923636 54.923636 0 0 0 205.242182 1000.727273h633.111273a54.923636 54.923636 0 0 0 54.87709-54.877091v-101.701818a21.876364 21.876364 0 0 0-0.60509-3.723637z" fill="#1A1A1A" p-id="2754"></path><path d="M904.517818 864.698182H138.938182a46.312727 46.312727 0 0 1-34.350546-15.36c-6.958545-7.936-11.031273-18.152727-11.52-28.718546v-2.397091c0-1.675636 0.116364-3.258182 0.349091-4.933818 0.372364-2.862545 0.861091-5.748364 1.326546-8.866909a158.208 158.208 0 0 1 88.855272-115.874909l146.734546-68.305454c10.077091-4.701091 19.316364-11.636364 26.647273-20.177455l1.908363-2.397091c4.817455-6.144 8.773818-12.846545 11.776-20.061091 3.84-9.495273 5.888-19.549091 5.888-29.905454v-23.272728c0-20.433455-8.052364-38.912-25.344-58.484363-48.989091-55.226182-73.844364-114.059636-73.844363-174.941091 0-67.351273 28.229818-132.421818 77.568-178.664727a242.152727 242.152727 0 0 1 138.333091-64.116364l3.723636-0.349091 0.698182-0.116364c0.232727 0 0.605091-0.139636 0.861091-0.139636 1.908364-0.232727 3.956364-0.349091 5.981091-0.465455 1.582545-0.116364 3.141818-0.232727 4.70109-0.232727 0.698182 0 1.442909-0.139636 2.280728-0.139636h0.349091c0.837818 0 1.559273-0.116364 2.397091-0.116364 0.837818 0 1.698909 0 2.536727-0.116363h9.844363c0.837818 0 1.675636 0 2.513455 0.116363 0.837818 0 1.559273 0 2.397091 0.116364h0.372364c0.698182 0 1.559273 0 2.280727 0.116363 1.559273 0.139636 3.118545 0.139636 4.561454 0.232728 2.048 0.139636 4.072727 0.372364 6.004364 0.488727 0.232727 0 0.605091 0 0.837818 0.139636l0.698182 0.116364 3.723636 0.349091a241.803636 241.803636 0 0 1 138.333091 64.116364 245.620364 245.620364 0 0 1 77.568 178.664727c0 58.600727-23.412364 114.176-73.728 174.824727-17.873455 21.480727-25.437091 39.028364-25.437091 58.577455v23.296c0 10.333091 1.908364 20.410182 5.864728 30.021818 3.025455 7.098182 6.981818 13.940364 11.776 19.944727l1.908363 2.397091c7.330909 8.517818 16.570182 15.476364 26.670546 20.177455l146.711272 68.305454a158.72 158.72 0 0 1 90.181819 124.741818c0.232727 1.582545 0.349091 3.258182 0.349091 4.933818v2.397091a44.916364 44.916364 0 0 1-11.52 28.578909 45.568 45.568 0 0 1-34.21091 15.499637zM521.728 59.880727h-4.677818c-0.837818 0-1.675636 0-2.397091 0.116364-0.721455 0-1.559273 0-2.280727 0.116364H512c-0.698182 0-1.442909 0-2.024727 0.116363-1.442909 0.116364-3.025455 0.116364-4.445091 0.232727-1.931636 0.139636-3.723636 0.232727-5.655273 0.488728l-1.442909 0.116363-3.584 0.372364a229.492364 229.492364 0 0 0-130.885818 60.625455 232.727273 232.727273 0 0 0-73.355637 169.05309c0 57.506909 23.761455 113.477818 70.586182 166.167273 19.572364 22.109091 28.695273 43.357091 28.695273 67.258182v23.272727c0 12.008727-2.280727 23.784727-6.842182 34.955637-3.490909 8.401455-8.029091 16.197818-13.684363 23.272727l-2.164364 2.653091a93.556364 93.556364 0 0 1-31.092364 23.668363l-146.711272 68.305455a145.454545 145.454545 0 0 0-81.408 106.263273c-0.465455 2.885818-0.977455 5.515636-1.210182 8.145454-0.116364 1.210182-0.232727 2.304-0.232728 3.490909v1.698909c0.232727 7.563636 3.258182 14.754909 8.145455 20.410182 6.260364 6.958545 15.127273 10.938182 24.389818 10.938182h765.556364a32.768 32.768 0 0 0 32.535273-31.464727v-1.698909c0-1.186909-0.116364-2.397091-0.232728-3.490909a145.454545 145.454545 0 0 0-82.618182-114.432l-146.850909-68.305455a93.556364 93.556364 0 0 1-31.092363-23.645091l-0.116364-0.232727-1.908364-2.536727a98.164364 98.164364 0 0 1-13.707636-23.156364 93.021091 93.021091 0 0 1-6.842182-35.072v-23.272727c0-22.574545 8.773818-43.240727 28.578909-67.025455 48.267636-58.112 70.725818-110.941091 70.725819-166.4a232.727273 232.727273 0 0 0-73.355637-169.053091 229.492364 229.492364 0 0 0-130.885818-60.648727l-3.607273-0.349091-1.559272-0.116364c-1.908364-0.116364-3.84-0.372364-5.748364-0.465454-1.442909-0.139636-2.885818-0.139636-4.445091-0.256-0.721455 0-1.442909-0.116364-2.164364-0.116364h-0.372363c-0.698182 0-1.559273 0-2.280728-0.116363-0.837818 0-1.675636 0-2.39709-0.139637h-3.956364l-0.605091 0.232728z m383.744 759.668364H138.007273l1.419636-7.819636a113.803636 113.803636 0 0 1 63.301818-81.989819l60.509091-28.229818 5.143273-2.513454 81.058909-37.701819a124.741818 124.741818 0 0 0 71.074909-96.418909v-0.232727c0.954182-5.888 1.442909-11.636364 1.442909-17.058909v-23.272727c0-31.348364-11.287273-58.135273-37.934545-89.716364-44.916364-53.294545-65.326545-107.566545-60.648728-161.349818 8.285091-96.418909 87.412364-174.219636 184.180364-180.945455l6.749091-0.372363h0.814545c2.304-0.116364 4.445091-0.116364 6.609455-0.116364 2.164364 0 4.328727 0 6.609455 0.116364h0.698181l6.749091 0.372363c96.768 6.725818 175.895273 84.526545 184.180364 180.945455 4.794182 55.109818-15.592727 109.498182-60.625455 161.349818-26.903273 30.999273-37.818182 57.041455-37.818181 89.6v23.272727c0 5.399273 0.465455 11.170909 1.419636 17.058909v0.116364a124.741818 124.741818 0 0 0 71.098182 96.418909l86.807272 40.331637v0.116363l59.904 27.973818a113.291636 113.291636 0 0 1 63.278546 82.013091l1.442909 8.052364z m-751.266909-13.218909H889.250909a99.886545 99.886545 0 0 0-54.132364-64.581818l-72.168727-33.629091v-0.116364l-74.565818-34.699636a137.937455 137.937455 0 0 1-78.661818-106.496 118.504727 118.504727 0 0 1-1.652364-19.083637v-23.296c0-36.142545 11.869091-64.605091 41.053091-98.350545 42.635636-49.105455 61.952-100.142545 57.506909-151.645091-7.68-90.065455-81.640727-162.56-171.938909-168.820364l-6.237091-0.349091h-0.698182c-2.187636-0.116364-4.212364-0.116364-6.144-0.116363-1.908364 0-3.956364 0-6.120727 0.116363h-0.721454l-6.237091 0.349091c-90.298182 6.260364-164.142545 78.894545-171.938909 168.820364-4.328727 50.199273 15.010909 101.236364 57.506909 151.645091 28.811636 34.094545 41.053091 63.534545 41.053091 98.210909v23.296c0 6.120727-0.581818 12.613818-1.675637 19.083636a137.681455 137.681455 0 0 1-78.638545 106.519273l-80.919273 37.701818-5.166545 2.513455-60.648728 28.206545a100.701091 100.701091 0 0 0-53.899636 64.721455z" fill="#1A1A1A" p-id="2755"></path><path d="M904.145455 842.123636h-33.605819c0.232727 0.698182 0.837818 1.186909 0.837819 2.024728v8.052363h33.256727v-8.052363c-0.116364-0.698182-0.465455-1.303273-0.465455-2.024728z" fill="#1A1A1A" p-id="2756"></path><path d="M910.522182 858.065455h-45.265455v-12.823273c-0.232727-0.465455-0.488727-0.954182-0.605091-1.675637l-1.931636-7.563636h47.080727l0.232728 5.282909c0.116364 0.581818 0.465455 1.559273 0.465454 2.629818v14.173091z" fill="#1A1A1A" p-id="2757"></path></svg>