<?xml version="1.0" standalone="no"?><!DOCTYPE svg PUBLIC "-//W3C//DTD SVG 1.1//EN" "http://www.w3.org/Graphics/SVG/1.1/DTD/svg11.dtd"><svg t="1770537027128" class="icon" viewBox="0 0 1024 1024" version="1.1" xmlns="http://www.w3.org/2000/svg" p-id="2587" xmlns:xlink="http://www.w3.org/1999/xlink" width="200" height="200"><path d="M442.181818 721.454545v93.09091l37.818182 69.818181 66.909091 93.090909L907.636364 884.363636l-61.090909-244.363636L721.454545 558.545455l-197.818181-69.818182L442.181818 721.454545z" fill="#FD5241" p-id="2588"></path><path d="M645.492364 483.886545a233.774545 233.774545 0 0 0 100.189091-267.962181 248.482909 248.482909 0 0 0-238.545455-169.355637 248.482909 248.482909 0 0 0-238.545455 169.355637 233.774545 233.774545 0 0 0 100.189091 267.962181A388.026182 388.026182 0 0 0 69.818182 841.704727C69.818182 948.247273 288.884364 1000.727273 507.136 1000.727273c218.274909 0 437.341091-52.48 437.341091-159.022546a388.421818 388.421818 0 0 0-298.984727-357.818182z m-83.874909 311.296l-54.458182 51.293091-54.481455-52.084363 54.458182-173.335273 54.458182 174.126545z m-241.338182-510.068363a183.272727 183.272727 0 0 1 186.88-178.920727 183.272727 183.272727 0 0 1 187.624727 178.920727 183.272727 183.272727 0 0 1-187.648 178.897454 190.440727 190.440727 0 0 1-132.375273-52.48 173.730909 173.730909 0 0 1-54.458182-126.417454z m186.88 655.988363c-228.212364 0-374.132364-59.648-374.132364-99.397818 13.754182-177.617455 160.581818-315.508364 338.734546-318.068363l-83.898182 271.546181c-3.281455 10.635636-0.186182 22.225455 7.959272 29.812364l89.460364 85.085091a32.581818 32.581818 0 0 0 22.248727 8.750545c8.145455 0.069818 16.011636-3.072 21.876364-8.750545l89.460364-88.250182c8.331636-7.493818 11.450182-19.2 7.936-29.835636l-83.874909-268.334546c178.199273 2.513455 325.166545 140.334545 339.130181 318.045091 0 39.749818-145.92 99.374545-374.923636 99.374546z" fill="#1A1A1A" p-id="2589"></path></svg>