<?xml version="1.0" standalone="no"?><!DOCTYPE svg PUBLIC "-//W3C//DTD SVG 1.1//EN" "http://www.w3.org/Graphics/SVG/1.1/DTD/svg11.dtd"><svg t="1770536992917" class="icon" viewBox="0 0 1024 1024" version="1.1" xmlns="http://www.w3.org/2000/svg" p-id="2260" xmlns:xlink="http://www.w3.org/1999/xlink" width="200" height="200"><path d="M488.727273 794.600727a146.292364 146.292364 0 0 0 146.292363 146.292364h73.146182A219.438545 219.438545 0 0 0 927.581091 721.454545v-109.707636A146.292364 146.292364 0 0 0 781.288727 465.454545H708.189091A219.438545 219.438545 0 0 0 488.727273 684.893091v109.707636z" fill="#FD5241" p-id="2261"></path><path d="M858.670545 311.831273v537.018182c0 18.082909-14.778182 33.000727-33.000727 33.000727H216.389818a33.093818 33.093818 0 0 1-33.000727-33.000727V176.128c0-18.082909 14.801455-33.000727 33.000727-33.000727h468.363637c21.178182 0 38.213818-17.175273 38.213818-38.213818 0-19.409455-15.685818-35.095273-35.095273-35.095273H224A107.869091 107.869091 0 0 0 116.363636 177.454545V847.36a107.869091 107.869091 0 0 0 107.636364 107.659636h594.222545a107.869091 107.869091 0 0 0 107.636364-107.659636V312.436364a33.978182 33.978182 0 0 0-33.885091-33.908364c-18.385455 0-33.28 14.941091-33.28 33.303273z" fill="#1A1A1A" p-id="2262"></path><path d="M493.498182 410.065455H278.807273c-15.080727 0-27.461818-12.381091-27.461818-27.461819v-12.986181c0-15.080727 12.381091-27.461818 27.461818-27.461819h214.690909c15.080727 0 27.461818 12.381091 27.461818 27.461819v12.986181a27.392 27.392 0 0 1-27.461818 27.461819z m201.402182 204.241454h-416.116364c-15.057455 0-27.461818-12.381091-27.461818-27.461818v-12.986182c0-15.080727 12.404364-27.461818 27.461818-27.461818h416.116364c15.080727 0 27.461818 12.381091 27.461818 27.461818v12.986182c0 15.080727-12.381091 27.461818-27.461818 27.461818z m224.372363-486.4L646.074182 403.083636a27.694545 27.694545 0 0 1-38.958546 0.139637l-9.262545-9.262546a27.694545 27.694545 0 0 1-0.139636-38.958545L871.051636 79.848727a27.694545 27.694545 0 0 1 38.958546-0.162909l9.262545 9.262546a27.578182 27.578182 0 0 1 0 38.981818z" fill="#1A1A1A" p-id="2263"></path></svg>