<?xml version="1.0" standalone="no"?><!DOCTYPE svg PUBLIC "-//W3C//DTD SVG 1.1//EN" "http://www.w3.org/Graphics/SVG/1.1/DTD/svg11.dtd"><svg t="1770536929654" class="icon" viewBox="0 0 1024 1024" version="1.1" xmlns="http://www.w3.org/2000/svg" p-id="1612" xmlns:xlink="http://www.w3.org/1999/xlink" width="200" height="200"><path d="M954.181818 651.636364q0 5.701818-0.256 11.403636-0.279273 5.725091-0.814545 11.403636-0.535273 5.678545-1.326546 11.333819t-1.861818 11.264q-1.047273 5.585455-2.373818 11.147636-1.303273 5.538909-2.885818 11.008t-3.397818 10.845091q-1.838545 5.376-3.909819 10.658909-2.094545 5.282909-4.421818 10.449454-2.304 5.143273-4.864 10.193455-2.56 5.026909-5.352727 9.937455-2.792727 4.887273-5.794909 9.658181-3.025455 4.747636-6.260364 9.332364-3.211636 4.584727-6.656 9.006545-3.444364 4.421818-7.098182 8.657455-3.653818 4.212364-7.470545 8.261818-3.84 4.049455-7.866182 7.889455-4.026182 3.816727-8.215273 7.447272t-8.564363 7.028364q-4.352 3.397818-8.866909 6.586182-4.514909 3.165091-9.169455 6.097454t-9.448727 5.632q-4.770909 2.699636-9.681455 5.12-4.910545 2.466909-9.937454 4.654546-5.003636 2.187636-10.123637 4.096-5.12 1.931636-10.286545 3.584-5.189818 1.675636-10.472727 3.048727-5.259636 1.396364-10.589091 2.513455-5.306182 1.117091-10.705455 1.954909-5.352727 0.837818-10.752 1.396363t-10.821818 0.837819Q738.513455 884.363636 733.090909 884.363636t-10.845091-0.279272q-5.422545-0.279273-10.821818-0.837819-5.399273-0.558545-10.775273-1.396363-5.352727-0.837818-10.705454-1.954909-5.306182-1.117091-10.565818-2.513455-5.282909-1.396364-10.472728-3.025454-5.189818-1.675636-10.286545-3.607273-5.12-1.908364-10.123637-4.096-5.026909-2.187636-9.937454-4.654546-4.887273-2.420364-9.681455-5.12t-9.448727-5.632q-4.654545-2.932364-9.169454-6.097454-4.514909-3.188364-8.86691-6.586182-4.352-3.397818-8.564363-7.028364-4.189091-3.630545-8.215273-7.447272-4.026182-3.84-7.866182-7.889455-3.816727-4.049455-7.470545-8.261818-3.653818-4.235636-7.098182-8.657455t-6.656-9.006545q-3.258182-4.584727-6.260364-9.332364-3.025455-4.747636-5.818181-9.658181-2.792727-4.887273-5.352728-9.937455-2.56-5.050182-4.864-10.193455-2.327273-5.166545-4.398545-10.472727-2.094545-5.259636-3.909818-10.635636-1.815273-5.376-3.397819-10.845091-1.582545-5.469091-2.885818-11.008-1.326545-5.538909-2.373818-11.170909-1.070545-5.585455-1.861818-11.240727t-1.326546-11.333819q-0.535273-5.678545-0.814545-11.403636Q512 657.361455 512 651.636364t0.256-11.403637q0.279273-5.725091 0.814545-11.403636 0.535273-5.678545 1.326546-11.333818t1.861818-11.264q1.047273-5.585455 2.373818-11.147637 1.303273-5.538909 2.885818-11.008t3.397819-10.845091q1.838545-5.376 3.909818-10.658909 2.094545-5.282909 4.421818-10.449454 2.304-5.143273 4.864-10.193455 2.56-5.026909 5.352727-9.937454 2.792727-4.887273 5.794909-9.658182 3.025455-4.747636 6.260364-9.332364 3.211636-4.584727 6.656-9.006545 3.444364-4.421818 7.098182-8.657455 3.653818-4.212364 7.470545-8.261818 3.84-4.049455 7.866182-7.889454 4.026182-3.816727 8.215273-7.447273t8.564363-7.028364q4.352-3.397818 8.86691-6.586182 4.514909-3.165091 9.169454-6.097454t9.448727-5.632q4.770909-2.699636 9.681455-5.12 4.910545-2.466909 9.937454-4.654546 5.003636-2.187636 10.123637-4.096 5.12-1.931636 10.286545-3.584 5.189818-1.675636 10.472728-3.048727 5.259636-1.396364 10.58909-2.513454 5.306182-1.117091 10.705455-1.95491 5.352727-0.837818 10.752-1.396363t10.821818-0.837818Q727.668364 418.909091 733.090909 418.909091t10.845091 0.279273q5.422545 0.279273 10.821818 0.837818 5.399273 0.558545 10.775273 1.396363 5.352727 0.837818 10.705454 1.95491 5.306182 1.117091 10.565819 2.513454 5.282909 1.396364 10.472727 3.025455 5.189818 1.675636 10.286545 3.607272 5.12 1.908364 10.123637 4.096 5.026909 2.187636 9.937454 4.654546 4.887273 2.420364 9.681455 5.12t9.448727 5.632q4.654545 2.932364 9.169455 6.097454 4.514909 3.188364 8.866909 6.586182 4.352 3.397818 8.564363 7.028364 4.189091 3.630545 8.215273 7.447273 4.026182 3.84 7.866182 7.889454 3.816727 4.049455 7.470545 8.261818 3.653818 4.235636 7.098182 8.657455t6.656 9.006545q3.258182 4.584727 6.260364 9.332364 3.025455 4.747636 5.818182 9.658182 2.792727 4.887273 5.352727 9.937454 2.56 5.050182 4.864 10.193455 2.327273 5.166545 4.398545 10.472727 2.094545 5.259636 3.909819 10.635636 1.815273 5.376 3.397818 10.845091 1.582545 5.469091 2.885818 11.008 1.326545 5.538909 2.373818 11.170909 1.070545 5.585455 1.861818 11.240728t1.326546 11.333818q0.535273 5.678545 0.814545 11.403636 0.256 5.701818 0.256 11.403637z" fill="#FD5241" p-id="1613"></path><path d="M893.253818 200.541091a287.255273 287.255273 0 0 1 70.865455 289.675636 35.421091 35.421091 0 1 1-67.560728-21.271272 216.482909 216.482909 0 0 0-359.493818-218.321455 35.421091 35.421091 0 0 1-50.129454 0 216.482909 216.482909 0 0 0-306.129455 0c-80.058182 80.058182-84.573091 207.825455-12.567273 292.514909l4.491637 5.12 8.075636 8.494546 256.023273 256a106.24 106.24 0 0 0 132.608 14.266181 35.421091 35.421091 0 0 1 38.4 59.508364 177.058909 177.058909 0 0 1-216.226909-18.967273l-4.887273-4.701091L130.094545 606.208l-9.262545-9.728C18.222545 483.281455 22.272 308.945455 130.699636 200.541091c102.865455-102.865455 264.285091-111.453091 376.901819-25.739636l4.375272 3.42109 4.375273-3.397818c112.64-85.736727 274.036364-77.149091 376.878545 25.716364h0.023273z m-133.329454 333.032727c18.245818 0 33.512727 13.847273 35.258181 32l0.16291 3.421091v70.818909h70.865454a35.421091 35.421091 0 0 1 3.421091 70.702546l-3.421091 0.162909h-70.865454v70.818909a35.421091 35.421091 0 0 1-70.679273 3.444363l-0.162909-3.42109v-70.865455h-70.842182a35.421091 35.421091 0 0 1-3.397818-70.656l3.397818-0.162909h70.842182v-70.865455c0-19.549091 15.872-35.421091 35.421091-35.421091v0.023273z" fill="#021408" p-id="1614"></path></svg>