<svg xmlns:xlink="http://www.w3.org/1999/xlink" xmlns="http://www.w3.org/2000/svg" version="1.1" viewBox="0 0 1024 1024" height="1024px" width="1024px">
    <title>暂无评价</title>
    <defs>
        <linearGradient id="linearGradient-1" y2="63.0775943%" x2="50%" y1="0%" x1="50%">
            <stop offset="0%" stop-opacity="0.397332038" stop-color="#FF9500"></stop>
            <stop offset="64.9556999%" stop-opacity="0.0661697921" stop-color="#FF9200"></stop>
            <stop offset="100%" stop-opacity="0" stop-color="#FF9000"></stop>
        </linearGradient>
        <linearGradient id="linearGradient-2" y2="100%" x2="50%" y1="0%" x1="50%">
            <stop offset="0%" stop-color="#FFC065"></stop>
            <stop offset="100%" stop-color="#FF8C35"></stop>
        </linearGradient>
    </defs>
    <g fill-rule="evenodd" fill="none" stroke-width="1" stroke="none" id="暂无评价">
        <g id="编组-2">
            <rect height="1024" width="1024" y="0" x="0" id="矩形"></rect>
            <ellipse ry="150" rx="350" cy="735" cx="512" opacity="0.5" fill="url(#linearGradient-1)" id="椭圆形"></ellipse>
            <g transform="translate(677.988476, 421.007570)" id="编组">
                <path transform="translate(66.372939, 117.459729) rotate(16.000000) translate(-66.372939, -117.459729)" fill="#FFDBAD" id="椭圆形" d="M73.4952866,229.027314 C89.2166164,229.024219 102.01735,182.585394 103.319332,114.779642 C104.621315,46.9738896 94.229671,5.88905003 78.5083411,5.89214517 C62.7870113,5.89524031 29.3291663,54.5658508 29.316698,117.836177 C29.3042379,181.106503 57.7739568,229.030409 73.4952866,229.027314 Z"></path>
                <path opacity="0.8" stroke-width="2" stroke="#FFFFFF" id="路径-42" d="M95.3072235,43.8448836 C72.1141531,81.7983445 57.1956347,112.268957 50.5516683,135.256722 C43.9077019,158.244486 41.2128741,188.715099 42.467185,226.66856"></path>
                <path transform="translate(95.301334, 181.382625) scale(-1, 1) rotate(-34.000000) translate(-95.301334, -181.382625)" fill="#FFB76A" id="椭圆形" d="M113.779255,248.470848 C124.549025,248.474558 123.686282,220.47556 117.755433,174.584664 C111.824584,128.693769 101.246415,114.298113 90.476645,114.294402 C79.7068752,114.290692 64.7072419,145.375678 69.4027966,184.58494 C74.0983513,223.794201 103.009485,248.467137 113.779255,248.470848 Z"></path>
                <path opacity="0.8" stroke-width="2" stroke="#FFFFFF" id="路径-43" d="M118.883233,157.951387 C108.731785,173.572968 97.5215836,187.709379 85.2526274,200.360621 C72.9836712,213.011863 59.8656745,221.781176 45.8986375,226.66856"></path>
            </g>
            <g transform="translate(289.010901, 649.458282) scale(-1, 1) translate(-289.010901, -649.458282) translate(253.866924, 592.101433)" id="编组备份">
                <path transform="translate(30.113387, 53.514046) rotate(16.000000) translate(-30.113387, -53.514046)" fill="#FFDBAD" id="椭圆形" d="M33.4806512,104.384544 C40.58626,104.40285 46.3135652,83.2433038 46.8169343,52.3262361 C47.3203035,21.4091684 42.5720052,2.66187784 35.4663964,2.64354868 C28.3607877,2.62524223 13.2998317,24.7765356 13.373328,53.6271156 C13.4473642,82.4776956 26.3750424,104.366214 33.4806512,104.384544 Z"></path>
                <path opacity="0.8" stroke="#FFFFFF" id="路径-42" d="M43.1916461,19.9106 C32.7173563,37.2306318 25.9799608,51.1358717 22.9794599,61.6263198 C19.9789589,72.1167679 18.7619399,86.0220078 19.3284029,103.34204"></path>
                <path transform="translate(43.226463, 82.683023) scale(-1, 1) rotate(-34.000000) translate(-43.226463, -82.683023)" fill="#FFB76A" id="椭圆形" d="M51.4864769,113.173782 C56.3661861,113.15179 56.0367603,100.417831 53.4502918,79.5565452 C50.8638234,58.6952596 46.1025279,52.1703603 41.2228188,52.1922646 C36.3431096,52.2142794 29.4786131,66.3867855 31.5200482,84.2115208 C33.5614833,102.036256 46.6067678,113.195709 51.4864769,113.173782 Z"></path>
                <path opacity="0.8" stroke="#FFFFFF" id="路径-43" d="M53.8388761,71.9830122 C49.2543515,79.1119083 44.1916797,85.5630484 38.6508608,91.3364325 C33.1100418,97.1098166 27.1857853,101.111686 20.8780911,103.34204"></path>
            </g>
            <g fill-rule="nonzero" transform="translate(380.000000, 380.000000)" id="评价">
                <rect height="264" width="264" y="0" x="0" opacity="0" fill="#000000" id="矩形"></rect>
                <path fill="url(#linearGradient-2)" id="形状" d="M52.7470943,160.5903 C69.9150303,173.864369 88.6436876,182.731383 106.87503,187.143728 C115.04538,189.452899 123.51102,190.547425 132,190.392144 L133.058116,190.392144 L133.137475,190.44505 L133.211543,190.397435 C141.287946,190.435415 149.329383,189.334727 157.098517,187.127856 C175.32986,182.715511 194.058517,173.848497 211.226453,160.574429 C245.863888,133.793507 264.798878,96.3679357 263.148216,64.5027655 C238.462365,55.6251702 206.173948,59.4978757 175.917114,75.7293787 C170.986293,41.9278558 153.855391,13.8877754 130.836072,0 C108.6897,14.5385171 92.3894189,42.3722645 87.8606814,75.6553107 C57.6620442,59.5137474 25.4582767,55.6780762 0.830621344,64.5450901 C-0.825330516,96.3785169 18.1096593,133.809379 52.7470943,160.5903 Z M20.5274548,190.386854 C16.3008945,191.460811 13.7319553,195.74303 14.773886,199.977599 C15.8158168,204.212169 20.0784659,206.813452 24.3208015,205.803607 C49.7746841,199.566854 75.473395,215.111995 81.7659318,240.552144 C82.4292964,243.320644 84.5247816,245.521706 87.2573591,246.320245 C89.9899367,247.118784 92.940895,246.392441 94.9906392,244.416791 C97.0403833,242.44114 97.8748319,239.518911 97.1773948,236.758798 C88.7793923,202.814439 54.4920758,182.071181 20.5274548,190.386854 L20.5274548,190.386854 Z M245.853307,190.386854 C229.539533,186.369318 212.297954,188.997467 197.922053,197.693056 C183.546152,206.388645 173.213714,220.439266 169.198076,236.753507 C168.500631,239.513623 169.335076,242.43586 171.384822,244.411515 C173.434568,246.38717 176.385532,247.113515 179.118113,246.314972 C181.850695,245.516429 183.94618,243.31536 184.609539,240.546854 C190.879205,215.095332 216.590573,199.542039 242.044088,205.803607 C244.804201,206.501042 247.726429,205.666593 249.702077,203.616849 C251.677726,201.567106 252.404069,198.616149 251.605531,195.883572 C250.806993,193.150995 248.605933,191.05551 245.837435,190.392144 L245.853307,190.386854 Z"></path>
                <path fill="#FF8C35" id="路径" d="M133.190381,196.280561 C128.80752,196.280561 125.254509,199.833572 125.254509,204.216433 L125.254509,256.064128 C125.254509,260.446989 128.80752,264 133.190381,264 C137.573242,264 141.126253,260.446989 141.126253,256.064128 L141.126253,204.216433 C141.126253,202.111709 140.290154,200.093189 138.80189,198.604924 C137.313625,197.116659 135.295105,196.280561 133.190381,196.280561 L133.190381,196.280561 Z"></path>
            </g>
        </g>
    </g>
</svg>
