<svg xmlns="http://www.w3.org/2000/svg" fill="none" viewBox="0 0 1024 1024" height="1024" width="1024">
<g clip-path="url(#clip0_1_177)">
<path fill="#666666" d="M332.356 966.776V971.024C328.972 971.312 325.444 971.672 321.772 972.032V977.576H317.02V972.392C312.268 972.68 307.228 973.04 302.044 973.328L301.396 968.72C306.868 968.432 312.124 968.216 317.02 967.928V961.952H303.628L302.476 957.848C304.492 955.544 306.436 952.808 308.164 949.568H300.46V944.96H310.468C311.116 943.376 311.764 941.792 312.34 940.208L317.524 941.072C317.02 942.368 316.516 943.664 315.94 944.96H333.508V949.568H313.78C312.196 952.592 310.468 955.328 308.668 957.704H317.02V952.952H321.772V957.704H333.004V961.952H321.772V967.64C325.516 967.352 329.044 967.064 332.356 966.776ZM342.436 962.024C341.644 968.072 339.7 973.328 336.604 977.792L333.004 974.048C336.172 969.368 337.9 963.824 338.044 957.344V946.04C346.972 945.176 354.028 943.592 359.068 941.288L362.38 945.176C357.052 947.48 350.572 949.136 342.796 950V957.488H364.396V962.024H356.764V977.648H351.796V962.024H342.436ZM356.332 979.736V1006.81H351.004V1004H314.428V1006.81H309.1V979.736H356.332ZM314.428 999.536H351.004V993.92H314.428V999.536ZM314.428 989.744H351.004V984.128H314.428V989.744ZM377.86 944.672H429.556V949.712H403.78V954.536C403.636 959 403.348 963.248 402.844 967.136H435.388V972.104H413.068V997.232C413.068 999.536 414.22 1000.76 416.524 1000.76H425.668C427.396 1000.76 428.692 1000.26 429.484 999.32C430.492 998.168 431.14 994.856 431.5 989.24L436.396 990.824C435.82 997.88 434.74 1002.13 433.156 1003.71C431.788 1005.01 429.628 1005.66 426.604 1005.66H414.94C410.188 1005.66 407.884 1003.21 407.884 998.312V972.104H402.052C400.9 978.368 399.1 983.768 396.652 988.376C392.188 996.152 384.988 1002.27 374.98 1006.59L372.1 1001.98C382.036 997.52 388.876 991.688 392.764 984.344C394.492 980.744 395.788 976.64 396.724 972.104H373.036V967.136H397.588C398.164 963.248 398.452 959 398.524 954.536V949.712H377.86V944.672ZM474.412 940.784H478.156C487.3 951.008 497.812 959.072 509.692 964.976L506.884 969.944C494.932 963.68 484.78 955.472 476.284 945.392C468.508 954.896 458.212 963.104 445.396 970.016L442.66 965.048C455.332 958.568 465.916 950.504 474.412 940.784ZM458.716 962.888H494.068V967.784H458.716V962.888ZM447.412 977.36H505.3V982.4H471.388C467.932 989.168 463.756 995.072 458.86 1000.18C470.596 999.464 481.756 998.456 492.412 997.016C489.964 993.848 487.3 990.536 484.348 987.224L488.38 984.632C494.932 991.976 499.972 998.312 503.5 1003.71L499.18 1006.74C497.956 1004.79 496.66 1002.85 495.22 1000.83C483.988 1002.63 469.804 1004.07 452.596 1005.08L451.156 1000.54C452.452 1000.18 453.316 999.752 453.892 999.176C458.5 993.848 462.388 988.304 465.484 982.4H447.412V977.36ZM538.204 961.808H557.932V950.432C552.748 950.936 547.132 951.224 541.156 951.224L539.644 946.544C554.548 946.544 566.932 944.888 576.724 941.576L579.244 945.968C574.636 947.624 569.236 948.92 563.188 949.784V961.808H581.764V966.848H563.188V978.44H576.868V1006.59H571.684V1002.99H549.58V1006.59H544.468V978.44H557.932V966.848H538.204V961.808ZM549.58 998.096H571.684V983.12H549.58V998.096ZM523.948 941.504C528.844 945.176 532.948 948.848 536.26 952.592L532.732 956.192C529.708 952.664 525.532 948.92 520.348 945.032L523.948 941.504ZM515.308 962.816H530.86V994.928C533.308 992.912 536.044 990.464 538.924 987.656L540.292 993.128C535.972 997.304 531.292 1000.98 526.324 1004.22L524.308 999.608C525.316 998.672 525.892 997.664 525.892 996.584V967.784H515.308V962.816ZM627.196 941H632.524V960.656H648.076V999.248C648.076 1004 645.772 1006.38 641.308 1006.38H632.884L631.516 1001.34L639.58 1001.48C641.812 1001.48 642.964 1000.33 642.964 998.096V991.04H616.972V1006.45H611.788V960.656H627.196V941ZM616.972 978.368V986.576H642.964V978.368H616.972ZM642.964 973.904V965.624H616.972V973.904H642.964ZM612.868 942.872C615.604 946.616 618.196 950.72 620.716 955.184L616.54 957.2C614.092 952.664 611.428 948.56 608.548 944.96L612.868 942.872ZM646.924 942.512L651.172 944.528C649.012 949.136 646.204 953.528 642.748 957.776L638.644 955.688C642.1 951.224 644.908 946.832 646.924 942.512ZM601.06 978.152L605.596 979.952C601.996 989.168 598.108 997.88 593.788 1006.02L589.036 1003.93C593.644 995.504 597.604 986.936 601.06 978.152ZM594.004 941.864C598.972 945.464 603.148 949.064 606.532 952.664L602.86 956.336C599.836 952.88 595.66 949.28 590.332 945.392L594.004 941.864ZM591.916 958.784C596.668 962.384 600.556 965.984 603.724 969.584L600.052 973.256C597.172 969.872 593.284 966.2 588.244 962.312L591.916 958.784ZM670.036 946.112H685.876C686.884 944.24 687.604 942.368 688.108 940.352L693.508 941.072C692.932 942.872 692.212 944.528 691.348 946.112H715.108V981.32H670.036V946.112ZM710.068 976.856V970.808H675.076V976.856H710.068ZM675.076 966.632H710.068V960.728H675.076V966.632ZM675.076 956.552H710.068V950.648H675.076V956.552ZM666.436 986.216L671.332 987.224C669.604 993.848 667.228 999.536 664.132 1004.43L659.74 1001.62C662.836 997.016 665.068 991.832 666.436 986.216ZM701.14 1005.73H682.636C678.46 1005.73 676.444 1003.64 676.444 999.608V985.856H681.7V998.528C681.7 1000.18 682.492 1001.05 684.148 1001.05H700.132C701.788 1001.05 702.94 1000.62 703.516 999.896C704.38 998.888 705.028 996.08 705.316 991.4L710.284 992.984C709.708 999.032 708.7 1002.7 707.26 1004.07C705.964 1005.15 703.876 1005.73 701.14 1005.73ZM691.492 983.264C695.38 987.008 698.332 990.32 700.42 993.128L696.46 995.864C694.3 992.768 691.42 989.384 687.676 985.64L691.492 983.264ZM714.748 984.92C719.356 990.68 722.884 995.792 725.332 1000.11L721.228 1002.99C718.636 998.312 715.108 993.128 710.716 987.44L714.748 984.92Z"></path>
<path fill="#EBEBEB" d="M543.362 0L561.215 0.349759L578.893 1.57394L596.221 3.49765L613.199 6.12088L630.002 9.44364L646.63 13.4659L662.908 18.1878L679.011 23.6091L694.588 29.73L709.816 36.3755L728.719 45.6443L746.748 55.7874L764.251 66.805L781.054 78.697L750.248 79.0468L746.573 80.0961L742.897 81.8449L737.121 86.7416L733.095 93.562L732.045 97.2345L731.695 103.181L732.045 107.378L733.095 111.05L734.846 114.723L739.746 120.494L746.573 124.516L750.248 125.565L754.449 125.915H833.563L844.59 138.332L854.917 151.098L864.894 164.214L874.17 178.03H911.802L916.178 178.38L920.378 179.429L924.054 181.353L927.555 183.801L930.53 186.599L932.981 190.097L934.731 193.944L935.781 197.967L936.306 202.514L935.256 210.908L934.031 214.231L931.23 218.603L927.73 222.45L923.354 225.423L918.628 227.347H883.972L878.896 227.872L874.17 229.096L869.795 231.194L865.944 233.992L862.618 237.315L859.818 241.163L857.717 245.535L856.492 250.257L855.967 264.072L856.492 269.144L857.717 273.866L859.818 278.238L862.618 282.085L865.944 285.408L869.795 288.206L874.17 290.305L878.896 291.529L883.972 292.053H1002.82L1010.34 295.201L1013.67 297.475L1019.1 303.421L1022.77 310.766L1024 319.16L1023.47 325.806L1022.25 330.527L1020.15 334.9L1017.35 338.747L1014.02 342.07L1010.17 344.868L1005.79 346.966L1001.07 348.191L995.992 348.715H934.381L935.781 367.428L936.306 386.49L935.781 404.852L934.556 422.865L932.456 440.528L929.655 458.017L925.804 475.155L921.429 492.119L916.178 508.732L910.227 524.997L903.576 540.911L896.399 556.475L888.348 571.69L879.596 586.555L870.32 600.895L860.518 614.711L850.016 628.177L838.814 641.293L827.262 653.71L815.01 665.602L802.408 677.144L789.105 687.987L775.453 698.48L761.275 708.098L746.748 717.192L731.695 725.761L716.117 733.631L700.364 740.976L684.087 747.447L667.634 753.218L650.656 758.289L633.328 762.836L616 766.334L598.321 769.307L580.293 771.231L561.915 772.455L543.362 772.98L525.859 772.63L508.706 771.581L491.903 769.657L475.275 767.208L458.997 764.061L438.693 759.164L418.915 753.218L399.836 746.397L381.108 738.528L362.73 729.784L344.876 720.165L327.898 709.672L311.271 698.48L295.343 686.238L280.115 673.472L265.412 659.831L251.585 645.49L238.458 630.451L226.205 614.886L214.653 598.622L203.976 581.658L194.175 564.17L185.423 546.157L177.372 527.795L170.371 508.732L152.692 508.383L150.242 507.333L147.967 505.585L146.391 503.311L145.341 500.863L144.816 497.89L145.341 494.742L146.741 491.769L148.842 489.495L151.642 487.921L174.046 487.572L177.722 486.522L181.397 484.774L187.174 479.877L191.199 473.057L192.249 469.384L192.599 465.187L192.249 459.241L191.199 455.568L189.449 451.896L184.548 446.125L181.397 443.851L177.722 442.102L174.046 441.053L154.093 440.354H115.411L109.11 439.304L106.309 437.905L101.583 434.058L98.4328 428.811L97.5576 425.663V419.193L99.833 413.422L103.684 408.7L109.11 405.552L115.411 404.503H150.767L150.417 386.49L150.767 369.351L151.817 352.388L153.743 335.774L156.193 319.51L159.519 303.421L164.419 283.309L170.546 263.897L177.547 245.01L185.423 226.473H122.587L115.936 225.948L109.46 224.724L103.509 222.625L97.9077 219.827L92.6568 216.329L87.9309 212.132L83.7302 207.41L80.2295 202.339L77.4291 196.568L75.3287 190.622L74.1035 184.326L73.5784 177.505L73.9284 168.237L75.1536 162.116L77.254 156.345L79.8795 150.749L83.2051 145.677L87.0558 141.13L91.4315 136.933L96.3324 133.435L101.758 130.462L107.359 128.189L113.31 126.79L119.787 125.915H341.376L347.502 124.866L352.753 121.718L356.429 117.171L357.829 114.548L358.879 108.427L358.529 105.279L357.829 102.306L354.678 97.0597L350.127 93.3871L347.502 91.9881L341.376 90.9388H290.092L291.317 89.8895H265.762L259.811 89.3648L254.21 87.7909L249.134 85.3425L244.409 82.0198L240.383 78.1724L237.057 73.4505L234.607 68.2041L233.207 62.7827L232.507 56.6619L233.207 48.7922L234.607 43.1959L237.057 37.9494L240.383 33.4025L244.409 29.3802L249.134 26.0575L254.21 23.6091L259.811 22.21L265.762 21.5105H413.489L444.469 12.2418L476.675 5.59623L509.406 1.39906L543.362 0Z" clip-rule="evenodd" fill-rule="evenodd"></path>
<path fill="#CBCBCB" d="M490.778 536.51L584.061 538.133L671.079 543.002L749.51 550.653L787.334 555.522L820.981 560.854L851.147 566.651L873.191 567.346L893.611 568.969L912.871 571.519L931.899 575.229L948.606 579.402L963.225 584.271L974.131 588.908L983.181 593.545L997.104 603.051L1002.67 608.847L1006.39 614.412L1008.71 619.976L1009.4 625.772L1008.94 630.409L1004.99 639.451L1001.51 644.088L995.944 649.421L988.75 654.753L979.469 660.086L958.584 668.896L945.822 672.838L918.672 678.866L902.893 681.416L880.153 687.676L853.235 693.704L853.931 701.123L853.235 707.615L851.843 714.107L849.058 720.367L845.114 726.858L840.009 733.35L832.815 740.306L824.229 747.493L813.555 754.449L788.494 767.2L759.024 778.329L741.853 783.43L718.88 788.994L693.819 793.863L666.67 798.036L639.288 800.818L610.514 802.441L580.116 803.137L552.735 802.673L526.746 801.282L501.917 798.964L476.856 795.718L453.883 791.776L432.303 786.907L410.954 781.343L391.926 775.315L374.987 768.823L362.457 763.027L341.572 751.203L325.097 738.219L318.6 731.495L313.495 724.54L310.014 717.816L273.583 714.57L207.914 707.151L148.046 697.645L96.9953 686.517L75.1829 680.489L56.8512 674.229L31.3261 663.564L22.0442 658.463L9.04958 648.493L4.87273 643.625L2.08818 639.219L0.463842 634.814L-0.000244141 630.409L0.695903 625.772L2.55227 620.903L5.80092 616.034L10.6739 610.934L17.6353 605.369L26.221 600.037L37.1272 594.472L50.5859 588.908L67.0612 583.112L88.6416 576.62L113.935 570.128L143.637 564.1L206.521 553.899L243.185 549.262L318.6 542.538L401.905 538.133L490.778 536.51Z" clip-rule="evenodd" fill-rule="evenodd"></path>
<g filter="url(#filter0_d_1_177)">
<path stroke-width="6.69281" stroke="#A3A3A3" fill="#CBCBCB" d="M379.671 235.737L686.054 237.86L688.183 237.875L689.072 239.81L772.361 421.106L773.024 422.55L772.325 423.977L730.68 508.894L729.874 510.537L728.054 510.745L478.187 539.191L477.581 539.261L476.988 539.111L342.706 505.145L341.342 504.799L340.635 503.583L293.466 422.487L292.594 420.988L293.316 419.411L376.605 237.689L377.507 235.723L379.671 235.737Z"></path>
<path stroke-width="6.69281" stroke="#A3A3A3" fill="white" d="M397.388 249.593L390.242 252.224L384.145 257.176L379.159 263.306L321.642 406.129L321.147 408.103L321.325 408.459L326.375 410.667H412.775L413.175 410.766L421.673 412.89L422.629 413.128L423.303 413.847L429.677 420.64L430.108 421.099L430.343 421.685L443.812 455.33L445.734 458.21L452.494 462.121L456.28 462.465L612.416 462.043L618.636 458.245L620.582 455.33L634.052 421.685L634.286 421.099L634.718 420.64L641.092 413.847L641.766 413.128L642.722 412.89L651.221 410.766L651.62 410.667H738.387L741.139 410.117L742.961 407.891L686.077 263.296L681.1 257.176L675.111 252.313L668.573 250.499H660.508L405.705 248.802L397.388 249.593ZM787.96 609.208L787.902 609.514L786.628 616.307L786.55 616.723L786.371 617.105L783.396 623.474L783.146 624.009L782.729 624.426L777.63 629.52L777.396 629.755L777.12 629.938L770.746 634.184L770.398 634.416L770.004 634.556L762.779 637.102L762.393 637.239L761.983 637.278L753.06 638.127L752.901 638.142H311.485L311.319 638.126L302.82 637.276L302.449 637.239L302.096 637.122L294.446 634.574L293.97 634.415L293.561 634.123L287.611 629.877L287.386 629.717L287.189 629.52L282.09 624.426L281.673 624.009L281.424 623.474L278.449 617.105L278.27 616.723L278.191 616.307L276.917 609.514L276.859 609.204V608.889L277.284 414.006L277.286 413.243L277.618 412.557L355.808 250.791L355.893 250.615L355.998 250.45L361.947 241.109L362.12 240.838L362.342 240.604L369.99 232.537L370.227 232.288L370.509 232.092L380.282 225.299L380.549 225.113L380.846 224.982L391.469 220.312L391.729 220.198L392.005 220.129L403.903 217.157L404.193 217.085L404.492 217.064L417.24 216.216L417.352 216.208H647.04L647.147 216.215L660.32 217.064L660.638 217.085L660.944 217.164L672.418 220.137L672.708 220.212L672.98 220.337L684.028 225.432L684.281 225.549L684.512 225.705L693.86 232.074L694.157 232.276L694.404 232.537L702.054 240.604L702.274 240.838L702.447 241.109L708.396 250.45L708.499 250.611L708.583 250.782L785.073 407.878L785.218 408.177L785.302 408.497L787.852 418.263L787.96 418.679V609.208Z"></path>
<path stroke-width="6.69281" stroke="#A3A3A3" fill="#A3A3A3" d="M643.909 533.432L642.929 534.412L639.528 537.809L638.552 538.785L637.17 538.788L430.223 539.213L429.677 539.214L429.158 539.041L424.06 537.343L422.472 536.814L421.942 535.227L420.242 530.132L419.873 529.025L420.272 527.929L421.972 523.258L422.525 521.738L424.06 521.228L429.158 519.529L429.674 519.357H634.427L634.662 519.392L637.636 519.815L638.74 519.974L639.528 520.762L642.929 524.158L643.909 525.139V533.432Z"></path>
<path stroke-width="6.69281" stroke="#A3A3A3" fill="white" d="M605.575 302.822L606.223 303.11L610.047 304.808L611.224 305.331L611.748 306.507L613.447 310.328L614.052 311.688L613.447 313.049L611.748 316.87L611.224 318.046L610.047 318.568L606.223 320.266L605.575 320.555H458.825L458.176 320.266L454.352 318.568L453.175 318.046L452.653 316.87L450.953 313.049L450.348 311.688L450.953 310.328L452.653 306.507L453.175 305.331L454.352 304.808L458.176 303.11L458.825 302.822H605.575Z"></path>
</g>
<path stroke-width="11.3679" stroke="#A3A3A3" fill="white" d="M554.104 54.7286L551.086 55.046L544.903 57.5167L543.05 58.84L539.218 63.5011L537.176 69.4513L536.838 72.8234V232.134L536.211 276.606L537.36 278.798L538.035 279.336L538.641 279.612H540.957L578.838 255.904L579.135 255.719L579.451 255.571L582.688 254.063L583.477 253.694L584.339 253.579L587.575 253.149L587.948 253.099H827.353L830.425 252.613L836.234 250.395L840.833 246.31L842.352 244.24L844.434 238.349L844.768 235.003V73.0626L843.46 65.9679L842.501 63.6378L838.687 58.9982L833.701 55.9445L827.264 54.7286H554.104Z"></path>
<path fill="#A3A3A3" d="M595.228 152.728L595.875 157.255L597.385 161.135L599.974 164.584L603.21 167.17L607.093 168.895L611.408 169.326L615.723 168.895L619.391 167.17L622.627 164.584L625.216 161.135L626.726 157.255L627.373 152.728L626.726 148.201L625.216 144.321L622.627 140.872L619.391 138.285L615.723 136.561L611.408 136.13L607.093 136.561L603.21 138.285L599.974 140.872L597.385 144.321L595.875 148.201L595.228 152.728Z"></path>
<path fill="#A3A3A3" d="M672.894 152.728L673.541 157.255L675.052 161.135L677.64 164.584L680.877 167.17L684.544 168.895L688.859 169.326L693.174 168.895L697.057 167.17L700.293 164.584L702.882 161.135L704.392 157.255L705.04 152.728L704.392 148.201L702.882 144.321L700.293 140.872L697.057 138.285L693.174 136.561L688.859 136.13L684.544 136.561L680.877 138.285L677.64 140.872L675.052 144.321L673.541 148.201L672.894 152.728Z"></path>
<path fill="#A3A3A3" d="M753.149 152.728L753.796 157.255L755.306 161.135L757.895 164.584L761.131 167.17L764.799 168.895L769.114 169.326L773.429 168.895L777.312 167.17L780.548 164.584L783.137 161.135L784.647 157.255L785.294 152.728L784.647 148.201L783.137 144.321L780.548 140.872L777.312 138.285L773.429 136.561L769.114 136.13L764.799 136.561L761.131 138.285L757.895 140.872L755.306 144.321L753.796 148.201L753.149 152.728Z"></path>
</g>
<defs>
<filter color-interpolation-filters="sRGB" filterUnits="userSpaceOnUse" height="504.413" width="593.581" y="190.126" x="235.619" id="filter0_d_1_177">
<feFlood result="BackgroundImageFix" flood-opacity="0"></feFlood>
<feColorMatrix result="hardAlpha" values="0 0 0 0 0 0 0 0 0 0 0 0 0 0 0 0 0 0 127 0" type="matrix" in="SourceAlpha"></feColorMatrix>
<feOffset dy="15.1573"></feOffset>
<feGaussianBlur stdDeviation="18.9466"></feGaussianBlur>
<feComposite operator="out" in2="hardAlpha"></feComposite>
<feColorMatrix values="0 0 0 0 0.504167 0 0 0 0 0.504167 0 0 0 0 0.504167 0 0 0 0.25 0" type="matrix"></feColorMatrix>
<feBlend result="effect1_dropShadow_1_177" in2="BackgroundImageFix" mode="normal"></feBlend>
<feBlend result="shape" in2="effect1_dropShadow_1_177" in="SourceGraphic" mode="normal"></feBlend>
</filter>
<clipPath id="clip0_1_177">
<rect height="1024" width="1024"></rect>
</clipPath>
</defs>
</svg>
