<svg xmlns:xlink="http://www.w3.org/1999/xlink" xmlns="http://www.w3.org/2000/svg" version="1.1" viewBox="0 0 1024 1024" height="1024px" width="1024px">
    <title>暂无订单</title>
    <defs>
        <linearGradient id="linearGradient-1" y2="63.0775943%" x2="50%" y1="0%" x1="50%">
            <stop offset="0%" stop-opacity="0.397332038" stop-color="#FF9500"></stop>
            <stop offset="64.9556999%" stop-opacity="0.0661697921" stop-color="#FF9200"></stop>
            <stop offset="100%" stop-opacity="0" stop-color="#FF9000"></stop>
        </linearGradient>
        <linearGradient id="linearGradient-2" y2="100%" x2="50%" y1="0%" x1="50%">
            <stop offset="0%" stop-color="#FFC065"></stop>
            <stop offset="100%" stop-color="#FF8C35"></stop>
        </linearGradient>
    </defs>
    <g fill-rule="evenodd" fill="none" stroke-width="1" stroke="none" id="暂无订单">
        <g id="编组-2">
            <rect height="1024" width="1024" y="0" x="0" id="矩形"></rect>
            <ellipse ry="150" rx="350" cy="735" cx="512" opacity="0.5" fill="url(#linearGradient-1)" id="椭圆形"></ellipse>
            <g transform="translate(677.988476, 421.007570)" id="编组">
                <path transform="translate(66.372939, 117.459729) rotate(16.000000) translate(-66.372939, -117.459729)" fill="#FFDBAD" id="椭圆形" d="M73.4952866,229.027314 C89.2166164,229.024219 102.01735,182.585394 103.319332,114.779642 C104.621315,46.9738896 94.229671,5.88905003 78.5083411,5.89214517 C62.7870113,5.89524031 29.3291663,54.5658508 29.316698,117.836177 C29.3042379,181.106503 57.7739568,229.030409 73.4952866,229.027314 Z"></path>
                <path opacity="0.8" stroke-width="2" stroke="#FFFFFF" id="路径-42" d="M95.3072235,43.8448836 C72.1141531,81.7983445 57.1956347,112.268957 50.5516683,135.256722 C43.9077019,158.244486 41.2128741,188.715099 42.467185,226.66856"></path>
                <path transform="translate(95.301334, 181.382625) scale(-1, 1) rotate(-34.000000) translate(-95.301334, -181.382625)" fill="#FFB76A" id="椭圆形" d="M113.779255,248.470848 C124.549025,248.474558 123.686282,220.47556 117.755433,174.584664 C111.824584,128.693769 101.246415,114.298113 90.476645,114.294402 C79.7068752,114.290692 64.7072419,145.375678 69.4027966,184.58494 C74.0983513,223.794201 103.009485,248.467137 113.779255,248.470848 Z"></path>
                <path opacity="0.8" stroke-width="2" stroke="#FFFFFF" id="路径-43" d="M118.883233,157.951387 C108.731785,173.572968 97.5215836,187.709379 85.2526274,200.360621 C72.9836712,213.011863 59.8656745,221.781176 45.8986375,226.66856"></path>
            </g>
            <g transform="translate(289.010901, 649.458282) scale(-1, 1) translate(-289.010901, -649.458282) translate(253.866924, 592.101433)" id="编组备份">
                <path transform="translate(30.113387, 53.514046) rotate(16.000000) translate(-30.113387, -53.514046)" fill="#FFDBAD" id="椭圆形" d="M33.4806512,104.384544 C40.58626,104.40285 46.3135652,83.2433038 46.8169343,52.3262361 C47.3203035,21.4091684 42.5720052,2.66187784 35.4663964,2.64354868 C28.3607877,2.62524223 13.2998317,24.7765356 13.373328,53.6271156 C13.4473642,82.4776956 26.3750424,104.366214 33.4806512,104.384544 Z"></path>
                <path opacity="0.8" stroke="#FFFFFF" id="路径-42" d="M43.1916461,19.9106 C32.7173563,37.2306318 25.9799608,51.1358717 22.9794599,61.6263198 C19.9789589,72.1167679 18.7619399,86.0220078 19.3284029,103.34204"></path>
                <path transform="translate(43.226463, 82.683023) scale(-1, 1) rotate(-34.000000) translate(-43.226463, -82.683023)" fill="#FFB76A" id="椭圆形" d="M51.4864769,113.173782 C56.3661861,113.15179 56.0367603,100.417831 53.4502918,79.5565452 C50.8638234,58.6952596 46.1025279,52.1703603 41.2228188,52.1922646 C36.3431096,52.2142794 29.4786131,66.3867855 31.5200482,84.2115208 C33.5614833,102.036256 46.6067678,113.195709 51.4864769,113.173782 Z"></path>
                <path opacity="0.8" stroke="#FFFFFF" id="路径-43" d="M53.8388761,71.9830122 C49.2543515,79.1119083 44.1916797,85.5630484 38.6508608,91.3364325 C33.1100418,97.1098166 27.1857853,101.111686 20.8780911,103.34204"></path>
            </g>
            <g fill-rule="nonzero" transform="translate(354.000000, 354.000000)" id="订单中心">
                <rect height="317" width="317" y="0" x="0" opacity="0" fill="#000000" id="矩形"></rect>
                <path fill="url(#linearGradient-2)" id="形状" d="M131.150823,33.9292808 L196.055996,33.9292808 C203.568558,33.9292808 209.909014,26.6435376 209.909014,17.6433526 C209.909014,8.66534267 203.568241,1.39924017 195.645443,1.39924017 L131.150823,1.39924017 C123.238162,1.39924017 116.906576,8.66534267 116.906576,17.6433526 C116.906576,26.6435376 123.248933,33.9292808 131.150823,33.9292808 Z M265.713898,23.9137996 L247.118923,23.9137996 C247.118923,23.9137996 234.107603,27.5051935 234.107603,29.3111861 C234.107603,42.9912391 224.502676,56.4546108 213.049623,56.4546108 L114.36184,56.4546108 C102.335723,56.4546108 92.7095702,42.9912391 92.7095702,29.3111861 C92.7200241,27.5051935 81.0312831,23.9137996 81.0312831,23.9137996 L60.7244002,23.9137996 C34.5870852,23.9137996 28.1626809,39.2043887 28.1626809,61.2668952 L28.1626809,279.74099 C28.1626809,303.42417 37.3573718,316.683215 62.6944874,316.683215 L263.743494,316.683215 C289.068889,316.683215 301.382964,306.297412 301.382964,279.74099 L301.382964,61.2668952 C301.382964,39.2043884 289.849447,23.9137996 265.713898,23.9137996 Z"></path>
                <path fill="#FFFFFF" id="路径" d="M232.712165,239.615707 L92.9978448,239.615707 C87.8557872,239.615707 82.7149967,233.111156 82.7149967,227.774592 C82.7149967,222.478893 87.0660418,217.923205 92.2169692,217.923205 L231.520735,217.923205 C236.652339,217.923205 241.003384,222.06834 241.413621,227.774592 C241.413621,233.111156 237.842184,239.615707 232.712165,239.615707 Z"></path>
                <path fill="#FFFFFF" id="路径" d="M233.265905,181.781496 L93.5721767,181.781496 C88.4199819,181.781496 85.1463235,176.055603 85.1463235,170.738997 C85.1463235,165.413204 89.4973686,160.087728 94.6394262,160.087728 L233.942876,160.087728 C239.09412,160.087728 243.445165,165.023558 243.834811,170.738997 C243.834811,176.055603 238.416516,181.781496 233.265905,181.781496 Z"></path>
                <path fill="#FFFFFF" id="路径" d="M233.265905,122.365894 L93.5721767,122.365894 C88.4199819,122.365894 85.1463235,116.659641 85.1463235,111.323395 C85.1463235,106.008372 89.4973686,100.682579 94.6394262,100.682579 L233.942876,100.682579 C239.09412,100.682579 243.445165,105.618727 243.834811,111.323395 C243.834811,116.659642 238.416516,122.365894 233.265905,122.365894 Z"></path>
            </g>
        </g>
    </g>
</svg>
