<?xml version="1.0" standalone="no"?><!DOCTYPE svg PUBLIC "-//W3C//DTD SVG 1.1//EN" "http://www.w3.org/Graphics/SVG/1.1/DTD/svg11.dtd"><svg t="1774098329298" class="icon" viewBox="0 0 1024 1024" version="1.1" xmlns="http://www.w3.org/2000/svg" p-id="1246" xmlns:xlink="http://www.w3.org/1999/xlink" width="200" height="200"><g transform="translate(-70 -50) scale(1.15)"><path d="M781.488833 717.590228a14.757909 14.757909 0 0 0-12.978586 14.862575v11.146931h-507.630194V369.994378h3.401646a14.757909 14.757909 0 0 0 14.914908-12.926253 12.978586 12.978586 0 0 0-12.926254-12.926253h-16.380232a12.926253 12.926253 0 0 0-12.926253 12.926253v397.730873a12.926253 12.926253 0 0 0 12.926253 12.926254h531.598712a12.978586 12.978586 0 0 0 12.926254-12.926254v-24.073184a12.978586 12.978586 0 0 0-12.926254-13.135586z m72.167221-341.629887L758.82864 279.405939a12.769254 12.769254 0 0 0-8.582614-3.767977H320.173353a12.87392 12.87392 0 0 0-12.926253 12.87392v383.862626a12.87392 12.87392 0 0 0 12.926253 13.187919h525.737415c7.169622 0 10.989932-5.756631 10.989932-12.926254v-287.831553a11.774927 11.774927 0 0 0-3.244646-8.844279z m-91.059437-60.182961l55.943987 53.903h-55.943987z m70.387898 345.659529H331.163285V299.501814h407.464813v84.988808c0 7.169622 3.872643 9.053611 10.989932 9.053611h83.366485z m-248.47713-322.476005a119.162263 119.162263 0 0 0-119.214596 118.848264 117.592273 117.592273 0 0 0 24.073184 71.643891 119.737926 119.737926 0 0 0 47.46604 37.313436v24.596514a29.56815 29.56815 0 0 0 19.624879 27.99816 29.882149 29.882149 0 0 0 56.100986 0 29.56815 29.56815 0 0 0 19.624879-27.99816v-24.596514a119.947258 119.947258 0 0 0 47.413706-37.313436 117.330608 117.330608 0 0 0 24.125518-71.643891 119.162263 119.162263 0 0 0-119.214596-118.848264z m13.815914 253.972095h11.774928c-0.680329 2.564317-5.233301 4.448306-7.745286 4.448306h-35.743445a5.91363 5.91363 0 0 1-5.913631-5.91363v-19.258547h50.501355a14.234579 14.234579 0 0 0-1.674657 6.646292c0 7.797618-18.996883 14.07758-11.199264 14.077579z m62.223949-77.819185a96.135739 96.135739 0 0 1-47.099709 33.283794h-57.880308a96.606736 96.606736 0 0 1-47.099709-33.336127 94.199417 94.199417 0 0 1-19.206215-57.252313 95.298411 95.298411 0 0 1 190.596821 0 94.199417 94.199417 0 0 1-19.31088 57.304646zM443.469924 349.636838l-20.252875-11.670262a15.385905 15.385905 0 1 0-15.699903 26.637502l20.252875 11.670261a15.699903 15.699903 0 0 0 7.692952 2.040988 15.699903 15.699903 0 0 0 13.344918-7.692953 15.281239 15.281239 0 0 0-5.599632-20.933203z m-7.745286 172.698931a15.699903 15.699903 0 0 0-7.692952 2.040988l-20.252875 11.670261a15.333572 15.333572 0 0 0 7.745286 28.678489 15.699903 15.699903 0 0 0 7.692952-2.040987l20.252875-11.670261a15.385905 15.385905 0 0 0-7.745286-28.67849zM427.717688 450.063883a15.699903 15.699903 0 0 0-15.699903-15.333572h-23.13119a15.385905 15.385905 0 1 0 0 30.719477h23.392855A15.699903 15.699903 0 0 0 427.717688 450.063883z m333.518271 85.669137l-20.252875-11.670261a15.699903 15.699903 0 0 0-7.692953-2.040988 15.385905 15.385905 0 0 0-7.745285 28.67849l20.252875 11.670261a15.699903 15.699903 0 0 0 7.692952 2.040987 15.385905 15.385905 0 0 0 7.745286-28.678489zM741.297082 450.063883a15.699903 15.699903 0 0 0 15.438238 15.699903h23.392855a15.385905 15.385905 0 1 0 0-30.719477h-23.392855a15.385905 15.385905 0 0 0-15.438238 15.019574z" fill="#000000" p-id="1247"></path></g></svg>




