<?xml version="1.0" standalone="no"?><!DOCTYPE svg PUBLIC "-//W3C//DTD SVG 1.1//EN" "http://www.w3.org/Graphics/SVG/1.1/DTD/svg11.dtd"><svg t="1773150889688" class="icon" viewBox="0 0 1024 1024" version="1.1" xmlns="http://www.w3.org/2000/svg" p-id="3503" xmlns:xlink="http://www.w3.org/1999/xlink" width="200" height="200"><path d="M940.8 704a33.28 33.28 0 0 0-26.88-22.4l-112-12.16-46.72-97.92a32 32 0 0 0-58.24 0l-46.72 99.84-112 12.16A33.28 33.28 0 0 0 512 704a32 32 0 0 0 8.96 33.28l82.56 74.24-21.76 107.52a30.72 30.72 0 0 0 12.16 32 30.08 30.08 0 0 0 19.2 6.4 33.92 33.92 0 0 0 15.36-3.84l98.56-54.4 97.92 54.4a32 32 0 0 0 34.56 0 30.72 30.72 0 0 0 12.16-32l-21.76-107.52 82.56-74.24a32 32 0 0 0 8.32-35.84z m-148.48 72.32a31.36 31.36 0 0 0-9.6 30.08l11.52 57.6-52.48-29.44a33.92 33.92 0 0 0-31.36 0l-52.48 29.44 11.52-57.6a31.36 31.36 0 0 0-9.6-30.08l-43.52-39.04 58.88-6.4a32 32 0 0 0 25.6-17.92l25.6-54.4 24.96 54.4a32 32 0 0 0 25.6 17.92l58.88 6.4zM499.2 448A181.76 181.76 0 1 0 320 263.68 181.76 181.76 0 0 0 499.2 448z m0-299.52A117.76 117.76 0 1 1 384 263.68a117.76 117.76 0 0 1 115.2-117.76zM531.2 563.2a32 32 0 0 0-32-32c-230.4 0-417.28 168.32-417.28 375.04a32 32 0 0 0 32 32 32.64 32.64 0 0 0 32-32c0-171.52 158.08-311.04 353.28-311.04a32 32 0 0 0 32-32z" fill="#535E67" p-id="3504"></path></svg>