<?xml version="1.0" standalone="no"?>
<!DOCTYPE svg PUBLIC "-//W3C//DTD SVG 1.1//EN" "http://www.w3.org/Graphics/SVG/1.1/DTD/svg11.dtd">
<svg t="1774098387564" class="icon" viewBox="0 0 1024 1024" version="1.1" xmlns="http://www.w3.org/2000/svg" p-id="2302" xmlns:xlink="http://www.w3.org/1999/xlink" width="200" height="200">
  <g transform="translate(-70 -50) scale(1.15)">
    <path d="M363.400419 360.522104h344.246538v20.933203H363.400419zM363.400419 460.478152h344.246538v20.933204H363.400419zM535.523688 607.847907h172.123269v20.933204h-172.123269z" fill="#000000" p-id="2303"></path>
    <path d="M646.312669 205.407063l-8.844278-25.486176H426.514029l-9.576941 27.527163v-2.040987H272.13165v581.315071h517.416467V205.407063z m-204.936066-4.552972H622.762815l20.933204 59.659631H420.652732z m327.290643 565.196504H293.064854V226.340267h117.225942l-19.101549 55.106659h281.551592l-19.153881-55.106659h115.132621z" fill="#000000" p-id="2304"></path>
    <path d="M458.227833 570.429805l-20.933204-46.681044-22.974192 48.355701-54.740328 6.907957 41.186079 36.947105-12.559922 52.594674 48.774365-27.945827 48.774365 27.945827-12.612256-52.594674 40.296418-36.16211z m-3.872643 55.891655l-17.112894-9.838606-17.165227 9.838606 4.238973-17.636225-16.118567-14.44391 20.933204-2.564318 8.268616-17.479225 6.750958 15.228906 23.759186 4.029642-17.845556 15.438237z" fill="#000000" p-id="2305"></path>
  </g>
</svg>



