<svg xmlns="http://www.w3.org/2000/svg" width="200" height="200" class="icon" viewBox="0 0 1024 1024"><path fill="#333" d="M234.057 65.829 51.2 234.057l168.229 182.857L782.629 1024l182.857-160.914zM124.343 234.057l102.4-87.771 102.4 102.4-102.4 87.771zM373.029 833.83l-29.258 65.828-65.828 7.314 51.2 43.886L314.514 1024l58.515-29.257L431.543 1024l-7.314-73.143 43.885-51.2-65.828-7.314zM146.286 533.943l-43.886 102.4L0 650.97l73.143 73.143L58.514 833.83l87.772-51.2 87.771 51.2-14.628-109.715 73.142-73.143-102.4-14.628zM819.2 0l-58.514 131.657L621.714 153.6l102.4 102.4-21.943 146.286 124.343-73.143 124.343 73.143L928.914 256 1024 153.6l-138.971-21.943z"/></svg>