<?xml version="1.0" encoding="iso-8859-1"?>
<!-- Generator: Adobe Illustrator 24.1.0, SVG Export Plug-In . SVG Version: 6.00 Build 0)  -->
<svg version="1.1" xmlns="http://www.w3.org/2000/svg" xmlns:xlink="http://www.w3.org/1999/xlink" x="0px" y="0px"
	 viewBox="0 0 512 512" style="enable-background:new 0 0 512 512;" xml:space="preserve">
<g id="_x31__x2C__Galery_x2C__image_x2C__photo_x2C__picture_x2C__media">
	<g>
		<path d="M404.67,126.58H105.23c-15.042,0-27.28,12.238-27.28,27.28v207.291c0,6.814,2.552,13.354,7.185,18.413
			c0.212,0.216,0.143,0.151,0.274,0.284c5.154,5.455,12.354,8.582,19.821,8.582h299.44c15.094,0,27.28-12.366,27.28-27.279V153.86
			C431.95,138.818,419.712,126.58,404.67,126.58z M105.23,146.58h299.44c3.946,0,7.28,3.333,7.28,7.28v195.112l-71.919-129.41
			c-3.561-6.409-12.608-6.927-16.875-0.958L251.129,319.35l-58.699-46.263c-3.949-3.113-9.598-2.809-13.19,0.712l-81.29,79.676
			V153.86C97.95,149.914,101.284,146.58,105.23,146.58z"/>
		<path d="M231.97,248.4c24.824,0,45.02-20.178,45.02-44.98s-20.196-44.98-45.02-44.98c-24.802,0-44.98,20.178-44.98,44.98
			S207.168,248.4,231.97,248.4z M231.97,178.44c13.796,0,25.02,11.206,25.02,24.98s-11.224,24.98-25.02,24.98
			c-13.774,0-24.98-11.206-24.98-24.98S218.196,178.44,231.97,178.44z"/>
		<path d="M422.27,74.186H89.73c-30.798,0-55.854,25.056-55.854,55.854v251.95c0,30.781,25.056,55.823,55.854,55.823h332.54
			c30.798,0,55.854-25.042,55.854-55.823V130.04C478.124,99.242,453.068,74.186,422.27,74.186z M458.196,381.99
			c0,19.793-16.116,35.896-35.926,35.896H89.73c-19.81,0-35.926-16.103-35.926-35.896V130.04c0-19.81,16.116-35.926,35.926-35.926
			h332.54c19.81,0,35.926,16.116,35.926,35.926V381.99z"/>
	</g>
</g>
<g id="Layer_1">
</g>
</svg>
