<?xml version="1.0" encoding="iso-8859-1"?>
<!-- Generator: Adobe Illustrator 24.1.0, SVG Export Plug-In . SVG Version: 6.00 Build 0)  -->
<svg version="1.1" xmlns="http://www.w3.org/2000/svg" xmlns:xlink="http://www.w3.org/1999/xlink" x="0px" y="0px"
	 viewBox="0 0 512 512" style="enable-background:new 0 0 512 512;" xml:space="preserve">
<g id="_x31_6_x2C__Revenue_x2C__money_x2C__profit_x2C__increase_x2C__growth_x2C__business_and_finance">
	<g>
		<g>
			<path d="M256,189.439c-44.36,0-77.813,18.876-77.813,43.906c0,64.854,0,129.002,0,193.75c0,25.03,33.452,43.906,77.813,43.906
				s77.813-18.876,77.813-43.906c0-64.854,0-129.002,0-193.75C333.813,208.315,300.361,189.439,256,189.439z M313.813,378.657
				c0,9.747-22.521,23.906-57.813,23.906s-57.813-14.159-57.813-23.906v-18.445c30.121,18.581,85.481,18.595,115.625,0V378.657z
				 M313.813,330.22c0,9.747-22.521,23.906-57.813,23.906s-57.813-14.159-57.813-23.906v-18.445
				c30.121,18.581,85.481,18.595,115.625,0V330.22z M313.813,281.782c0,9.747-22.521,23.906-57.813,23.906
				s-57.813-14.159-57.813-23.906v-18.445c30.121,18.581,85.481,18.595,115.625,0V281.782z M256,451.001
				c-35.291,0-57.813-14.159-57.813-23.906V408.65c30.121,18.581,85.481,18.595,115.625,0v18.445
				C313.813,436.842,291.291,451.001,256,451.001z"/>
			<path d="M78.813,237.876C34.452,237.876,1,256.752,1,281.782c0,28.892,0,116.232,0,145.313c0,25.03,33.452,43.906,77.812,43.906
				s77.813-18.876,77.813-43.906c0-28.892,0-116.232,0-145.313C156.625,256.752,123.173,237.876,78.813,237.876z M136.625,378.657
				c0,9.747-22.521,23.906-57.813,23.906C43.522,402.564,21,388.405,21,378.657v-18.445c30.122,18.581,85.481,18.595,115.625,0
				V378.657z M136.625,330.22c0,9.747-22.521,23.906-57.813,23.906C43.522,354.126,21,339.967,21,330.22v-18.445
				c30.122,18.581,85.481,18.595,115.625,0V330.22z M78.813,451.001C43.522,451.001,21,436.842,21,427.095V408.65
				c30.122,18.581,85.481,18.595,115.625,0v18.445C136.625,436.842,114.104,451.001,78.813,451.001z"/>
			<path d="M433.188,139.439c-44.36,0-77.813,18.876-77.813,43.906c0,59.453,0,191.483,0,243.75
				c0,25.03,33.452,43.906,77.813,43.906S511,452.125,511,427.095c0-2.772,0-237.198,0-243.75
				C511,158.315,477.548,139.439,433.188,139.439z M491,377.095c0,9.747-22.521,23.906-57.813,23.906s-57.813-14.159-57.813-23.906
				V358.65c30.122,18.581,85.481,18.595,115.625,0V377.095z M491,328.657c0,9.747-22.521,23.906-57.813,23.906
				s-57.813-14.159-57.813-23.906v-18.445c30.122,18.581,85.481,18.595,115.625,0V328.657z M491,280.22
				c0,9.747-22.521,23.906-57.813,23.906s-57.813-14.159-57.813-23.906v-18.445c30.122,18.581,85.481,18.595,115.625,0V280.22z
				 M491,231.782c0,9.747-22.521,23.906-57.813,23.906s-57.813-14.159-57.813-23.906v-18.445
				c14.022,8.65,34.394,13.914,57.813,13.914s43.791-5.264,57.813-13.914V231.782z M433.188,451.001
				c-35.291,0-57.813-14.159-57.813-23.906v-20.008c30.122,18.581,85.481,18.595,115.625,0v20.008
				C491,436.842,468.479,451.001,433.188,451.001z"/>
			<path d="M14.774,220.262l261.424-106.506l15.858,31.717c2.269,4.537,7.573,6.658,12.344,4.933l176.573-63.82l-6.805,13.61
				c-3.346,6.691,1.588,14.474,8.937,14.474c3.668,0,7.2-2.025,8.952-5.53l17.889-35.777c2.47-4.939,0.468-10.946-4.473-13.416
				l-35.777-17.889c-4.939-2.47-10.947-0.469-13.416,4.473c-2.47,4.939-0.468,10.946,4.473,13.416l14.723,7.361l-169.508,61.267
				L289.945,96.53c-2.338-4.675-7.882-6.761-12.717-4.789l-270,110c-5.115,2.084-7.572,7.919-5.488,13.033
				C3.827,219.899,9.671,222.343,14.774,220.262z"/>
		</g>
	</g>
</g>
<g id="Layer_1">
</g>
</svg>
