<?xml version="1.0" encoding="iso-8859-1"?>
<!-- Generator: Adobe Illustrator 24.1.0, SVG Export Plug-In . SVG Version: 6.00 Build 0)  -->
<svg version="1.1" xmlns="http://www.w3.org/2000/svg" xmlns:xlink="http://www.w3.org/1999/xlink" x="0px" y="0px"
	 viewBox="0 0 512 512" style="enable-background:new 0 0 512 512;" xml:space="preserve">
<g id="_x31_6_x2C__Location_x2C__map_x2C__pin_x2C__sign._mark">
	<g>
		<path d="M380.86,29.909c-53.293,0-96.65,43.366-96.65,96.67c0,4.959,1.006,10.71,3.088,17.488
			c-108.716-39.593-102.005-37.215-103.193-37.464c-1.504-0.318-3.023-0.286-4.47,0.076c-0.764,0.19-100.972,35.431-138.479,48.596
			c-4.005,1.407-6.686,5.189-6.686,9.435v307.38c0,6.932,6.899,11.769,13.422,9.396l134.158-48.854
			c141.488,51.515,134.329,48.947,135.167,49.157c2.009,0.499,4.034,0.352,5.835-0.303l137.58-50.1
			c3.949-1.438,6.578-5.193,6.578-9.396V163.603c6.935-15.518,10.32-27.652,10.32-37.025
			C477.53,73.274,434.164,29.909,380.86,29.909z M172.05,414.988L54.47,457.804V171.795l117.58-41.305V414.988z M309.63,457.804
			l-117.58-42.817V130.663l105.445,38.402c2.713,5.622,3.977,7.978,4.311,8.646l0,0c3.829,7.429,7.765,14.434,7.824,14.542V457.804z
			 M380.86,74.579c26.87,0,48.73,21.86,48.73,48.73s-21.86,48.73-48.73,48.73c-26.859,0-48.71-21.86-48.71-48.73
			S354.001,74.579,380.86,74.579z M447.21,414.988l-117.58,42.816V226.197c16.733,27.293,33.537,52.904,42.483,69.049
			c1.762,3.18,5.111,5.153,8.747,5.153c0,0,0,0,0,0c3.635,0,6.984-1.973,8.746-5.151c12.066-21.768,37.465-58.878,57.604-93.532
			V414.988z"/>
		<path d="M380.86,152.039c15.842,0,28.73-12.888,28.73-28.73s-12.888-28.73-28.73-28.73c-15.831,0-28.71,12.888-28.71,28.73
			S365.029,152.039,380.86,152.039z"/>
	</g>
</g>
<g id="Layer_1">
</g>
</svg>
