<?xml version="1.0" standalone="no"?><!DOCTYPE svg PUBLIC "-//W3C//DTD SVG 1.1//EN" "http://www.w3.org/Graphics/SVG/1.1/DTD/svg11.dtd"><svg t="1773151079506" class="icon" viewBox="0 0 1024 1024" version="1.1" xmlns="http://www.w3.org/2000/svg" p-id="5647" xmlns:xlink="http://www.w3.org/1999/xlink" width="200" height="200"><path d="M234.057143 65.828571L51.2 234.057143 219.428571 416.914286l563.2 607.085714 182.857143-160.914286L234.057143 65.828571zM124.342857 234.057143L226.742857 146.285714l102.4 102.4-102.4 87.771429-102.4-102.4z m248.685714 599.771428l-29.257142 65.828572-65.828572 7.314286 51.2 43.885714-14.628571 73.142857 58.514285-29.257143 58.514286 29.257143-7.314286-73.142857 43.885715-51.2-65.828572-7.314286-29.257143-58.514286zM146.285714 533.942857l-43.885714 102.4-102.4 14.628572 73.142857 73.142857-14.628571 109.714285 87.771428-51.2 87.771429 51.2L219.428571 724.114286l73.142858-73.142857-102.4-14.628572L146.285714 533.942857zM819.2 0l-58.514286 131.657143-138.971428 21.942857 102.4 102.4-21.942857 146.285714 124.342857-73.142857 124.342857 73.142857-21.942857-146.285714L1024 153.6l-138.971429-21.942857-65.828571-131.657143z" fill="#333333" p-id="5648"></path></svg>