<?xml version="1.0" encoding="iso-8859-1"?>
<!-- Generator: Adobe Illustrator 24.1.0, SVG Export Plug-In . SVG Version: 6.00 Build 0)  -->
<svg version="1.1" xmlns="http://www.w3.org/2000/svg" xmlns:xlink="http://www.w3.org/1999/xlink" x="0px" y="0px"
	 viewBox="0 0 512 512" style="enable-background:new 0 0 512 512;" xml:space="preserve">
<g id="_x32_5_x2C__contract_x2C__page_x2C__pencil_x2C__signing_x2C__paper">
	<g>
		<g>
			<path d="M376,406h-20V26c0-5.523-4.478-10-10-10H36c-5.523,0-10,4.477-10,10c0,36.96,0,406.447,0,425c0,24.813,20.187,45,45,45
				c35.294,0,209.134,0,235,0c44.112,0,80-35.888,80-80C386,410.478,381.522,406,376,406z M46,451c0-12.767,0-402.665,0-415h290v370
				H106c-5.523,0-10,4.478-10,10v35c0,13.785-11.215,25-25,25S46,464.785,46,451z"/>
			<path d="M446,146c-22.056,0-40,17.944-40,40v250c0,1.813,0.492,3.591,1.425,5.145l30,50c3.885,6.476,13.276,6.458,17.15,0l30-50
				c0.933-1.554,1.425-3.332,1.425-5.145V186C486,163.944,468.056,146,446,146z M426,236h40v20h-40V236z M446,166
				c11.028,0,20,8.972,20,20v30h-40v-30C426,174.972,434.972,166,446,166z"/>
			<path d="M76,96h150c5.523,0,10-4.477,10-10s-4.477-10-10-10H76c-5.523,0-10,4.477-10,10S70.477,96,76,96z"/>
			<path d="M76,166h230c5.522,0,10-4.477,10-10s-4.478-10-10-10H76c-5.523,0-10,4.477-10,10S70.477,166,76,166z"/>
			<path d="M76,206h230c5.522,0,10-4.477,10-10s-4.478-10-10-10H76c-5.523,0-10,4.477-10,10S70.477,206,76,206z"/>
			<path d="M76,246h230c5.522,0,10-4.477,10-10s-4.478-10-10-10H76c-5.523,0-10,4.477-10,10S70.477,246,76,246z"/>
			<path d="M306,286c5.522,0,10-4.478,10-10s-4.478-10-10-10H76c-5.523,0-10,4.478-10,10s4.477,10,10,10H306z"/>
			<path d="M306,366h-23.819l-7.236-14.472c-2.689-5.379-9.489-7.183-14.491-3.849l-18.193,12.129l-6.558-26.234
				c-0.874-3.495-3.561-6.25-7.032-7.211c-3.471-0.962-7.193,0.019-9.741,2.565l-40,40c-3.905,3.905-3.905,10.237,0,14.143
				c3.905,3.904,10.237,3.904,14.143,0l27.511-27.512l5.716,22.866c1.677,6.704,9.5,9.727,15.249,5.895l20.575-13.716l4.934,9.867
				C268.75,383.86,272.212,386,276,386h30c5.522,0,10-4.478,10-10S311.522,366,306,366z"/>
		</g>
	</g>
</g>
<g id="Layer_1">
</g>
</svg>
