<?xml version="1.0" encoding="iso-8859-1"?>
<!-- Generator: Adobe Illustrator 24.1.0, SVG Export Plug-In . SVG Version: 6.00 Build 0)  -->
<svg version="1.1" xmlns="http://www.w3.org/2000/svg" xmlns:xlink="http://www.w3.org/1999/xlink" x="0px" y="0px"
	 viewBox="0 0 512 512" style="enable-background:new 0 0 512 512;" xml:space="preserve">
<g id="_x31_9_x2C__find_leads_x2C__recruit_x2C__coordination_x2C__leads_x2C__select_x2C__search">
	<g>
		<path d="M315.917,0.583c-107.523,0-195,87.477-195,195c0,36.844,10.274,71.332,28.104,100.755l-35.187,35.193
			c-5.859-4.189-14.048-3.669-19.309,1.592l-75.854,75.854c-23.452,23.452-23.448,61.406,0,84.853
			c23.451,23.453,61.405,23.448,84.853,0l75.854-75.854c5.858-5.857,5.858-15.355,0-21.213l-1.744-1.744l34.448-34.455
			c30.086,19.003,65.696,30.019,103.836,30.019c107.523,0,195-87.477,195-195S423.44,0.583,315.917,0.583z M82.31,472.616
			c-11.727,11.725-30.699,11.726-42.427,0c-11.725-11.727-11.725-30.7,0-42.427l65.247-65.247
			c19.679,19.679,28.495,28.495,42.427,42.427L82.31,472.616z M315.917,360.583c-90.981,0-165-74.019-165-165s74.019-165,165-165
			s165,74.019,165,165S406.898,360.583,315.917,360.583z"/>
		<path d="M359.025,176.517c7.298-9.121,11.677-20.675,11.677-33.238c0-29.392-23.912-53.303-53.304-53.303
			s-53.303,23.911-53.303,53.303c0,12.74,4.498,24.445,11.981,33.625c-28.727,15.154-49.25,45.536-49.25,81.286
			c0,8.284,6.716,15,15,15h152.179c8.284,0,15-6.716,15-15C409.006,222.393,388.323,191.614,359.025,176.517z M317.398,119.977
			c12.85,0,23.304,10.453,23.304,23.303s-10.454,23.304-23.304,23.304s-23.303-10.454-23.303-23.304
			S304.549,119.977,317.398,119.977z"/>
	</g>
</g>
<g id="Layer_1">
</g>
</svg>
