<svg xmlns="http://www.w3.org/2000/svg" xml:space="preserve" viewBox="0 0 512 512"><path d="M380.86 29.909c-53.293 0-96.65 43.366-96.65 96.67 0 4.959 1.006 10.71 3.088 17.488-108.716-39.593-102.005-37.215-103.193-37.464a9.9 9.9 0 0 0-4.47.076c-.764.19-100.972 35.431-138.479 48.596a10 10 0 0 0-6.686 9.435v307.38c0 6.932 6.899 11.769 13.422 9.396l134.158-48.854c141.488 51.515 134.329 48.947 135.167 49.157a10 10 0 0 0 5.835-.303l137.58-50.1a10 10 0 0 0 6.578-9.396V163.603c6.935-15.518 10.32-27.652 10.32-37.025 0-53.304-43.366-96.669-96.67-96.669M172.05 414.988 54.47 457.804V171.795l117.58-41.305zm137.58 42.816-117.58-42.817V130.663l105.445 38.402c2.713 5.622 3.977 7.978 4.311 8.646 3.829 7.429 7.765 14.434 7.824 14.542zm71.23-383.225c26.87 0 48.73 21.86 48.73 48.73s-21.86 48.73-48.73 48.73c-26.859 0-48.71-21.86-48.71-48.73s21.851-48.73 48.71-48.73m66.35 340.409-117.58 42.816V226.197c16.733 27.293 33.537 52.904 42.483 69.049a10.001 10.001 0 0 0 17.493.002c12.066-21.768 37.465-58.878 57.604-93.532z"/><path d="M380.86 152.039c15.842 0 28.73-12.888 28.73-28.73s-12.888-28.73-28.73-28.73c-15.831 0-28.71 12.888-28.71 28.73s12.879 28.73 28.71 28.73"/></svg>